<svg xmlns="http://www.w3.org/2000/svg" viewBox="181.8 110.26 912.65 271.58">
  <g transform="matrix(1.333333, 0, 0, -1.333333, 80.017174, 664.93634)" id="g10">
    <path id="path12" style="fill:#201f1f;fill-opacity:1;fill-rule:evenodd;stroke:none" d="M 755.941 267.493 L 81.674 267.493 L 81.674 275.277 L 755.941 275.277 L 755.941 267.493 Z M 96.002 234.581 C 96.517 233.076 98.235 227.869 98.578 226.404 C 98.836 225.306 98.492 224.899 97.29 224.899 L 96.174 224.899 C 95.916 224.899 95.83 224.817 95.83 224.573 L 95.83 223.76 C 95.83 223.515 95.916 223.271 96.26 223.271 C 97.204 223.271 98.664 223.393 102.271 223.393 C 106.995 223.393 107.854 223.271 108.627 223.271 C 108.97 223.271 109.056 223.515 109.056 223.76 L 109.056 224.614 C 109.056 224.817 108.97 224.899 108.712 224.899 L 107.339 224.899 C 106.48 224.899 105.363 225.387 104.59 226.77 C 103.989 227.869 101.241 235.436 100.21 238.609 C 99.437 241.213 96.088 250.326 95.315 252.849 C 95.229 253.093 95.057 253.581 94.799 253.581 C 94.585 253.581 94.413 253.418 94.155 253.174 C 93.64 252.686 91.278 251.465 89.904 251.14 C 89.561 251.059 89.475 250.896 89.475 250.733 C 89.475 250.611 89.604 250.367 89.733 250.245 C 89.99 250.001 89.733 249.269 89.647 248.862 C 89.217 247.804 85.739 239.016 85.438 238.202 C 84.15 234.785 81.059 227.462 80.629 226.729 C 79.856 225.468 79.083 224.899 77.881 224.899 L 76.593 224.899 C 76.42 224.899 76.335 224.817 76.335 224.573 L 76.335 223.8 C 76.335 223.515 76.335 223.271 76.593 223.271 C 77.194 223.271 78.138 223.393 81.316 223.393 C 84.322 223.393 86.125 223.271 86.726 223.271 C 86.984 223.271 87.07 223.434 87.07 223.678 L 87.07 224.695 C 87.07 224.817 86.984 224.899 86.641 224.899 L 84.837 224.899 C 83.978 224.899 83.291 225.346 83.291 225.875 C 83.291 226.079 83.291 226.404 83.377 226.729 C 83.592 227.828 85.696 233.646 86.039 234.581 L 96.002 234.581 Z M 86.641 236.209 C 86.941 237.145 90.806 247.153 90.978 247.682 C 91.106 248.048 91.278 248.211 91.536 248.211 C 91.708 248.211 91.794 247.967 91.965 247.478 C 92.223 246.665 95.143 237.389 95.573 236.209 L 86.641 236.209 Z M 111.332 224.41 C 111.375 224.248 111.504 224.126 111.676 223.963 C 112.148 223.597 114.037 222.905 116.313 222.905 C 120.564 222.905 123.484 225.346 123.484 228.764 C 123.484 230.147 123.141 231.123 122.196 232.018 C 121.08 233.158 119.877 233.646 117.902 234.134 C 115.326 234.785 114.037 235.273 114.037 236.941 C 114.037 238.365 115.411 239.26 117.001 239.26 C 118.417 239.26 119.19 238.528 119.705 237.999 L 121.767 235.802 C 121.852 235.639 121.982 235.599 122.11 235.639 L 122.926 236.006 C 123.012 236.087 123.012 236.29 122.969 236.453 L 122.411 239.22 C 122.368 239.464 122.239 239.627 121.595 239.952 C 120.822 240.358 119.534 240.847 117.43 240.847 C 115.669 240.847 114.466 240.481 112.964 239.504 C 111.461 238.487 110.774 237.022 110.774 235.232 C 110.774 232.344 113.092 230.961 116.012 230.147 C 119.018 229.333 120.135 228.601 120.135 226.974 C 120.135 225.468 118.761 224.492 117.086 224.492 C 114.982 224.492 114.166 225.468 113.393 226.689 L 111.976 228.967 C 111.89 229.13 111.761 229.13 111.59 229.089 L 110.774 228.845 C 110.645 228.804 110.602 228.682 110.645 228.52 L 111.332 224.41 Z M 135.938 240.847 C 134.177 240.847 131.944 240.521 129.84 238.894 C 127.264 236.941 126.233 234.093 126.233 232.141 C 126.233 229.659 126.663 227.95 128.552 225.835 C 130.484 223.638 132.803 222.905 135.508 222.905 C 138.385 222.905 140.962 223.963 142.722 225.835 C 144.354 227.543 145.385 229.74 145.385 232.018 C 145.385 234.419 144.44 236.535 142.422 238.447 C 140.962 239.789 138.815 240.847 135.938 240.847 Z M 135.852 224.614 C 134.134 224.614 133.189 225.265 132.459 226.363 C 131.3 228.113 131.128 229.659 131.128 232.018 C 131.128 234.989 131.644 236.697 132.975 238.121 C 133.705 238.894 134.563 239.22 135.68 239.22 C 137.655 239.22 140.146 236.616 140.146 232.141 C 140.146 227.991 138.686 224.614 135.852 224.614 Z M 164.021 227.096 C 163.892 227.218 163.72 227.218 163.635 227.136 C 162.475 226.282 161.144 225.59 158.997 225.59 C 157.623 225.59 155.734 225.997 154.574 227.787 C 152.985 230.269 152.899 231.937 152.899 234.378 C 152.899 237.267 155.047 239.098 156.764 239.098 C 157.881 239.098 158.826 238.813 159.427 237.43 C 159.856 236.372 160.543 235.395 162.003 235.395 C 163.206 235.395 163.892 236.209 163.892 237.185 C 163.892 238.406 162.776 240.847 157.795 240.847 C 155.39 240.847 153.329 240.033 151.525 238.487 C 149.378 236.616 148.348 233.768 148.348 231.205 C 148.348 229.171 148.777 227.543 150.409 225.59 C 152.041 223.638 154.359 222.905 157.279 222.905 C 160.457 222.905 163.463 224.777 164.536 226.038 C 164.709 226.241 164.665 226.404 164.536 226.526 L 164.021 227.096 Z M 168.745 229.252 C 168.745 228.113 168.702 226.811 168.659 225.59 C 168.616 224.939 168.401 224.777 167.972 224.777 L 166.082 224.777 C 165.825 224.777 165.653 224.695 165.653 224.451 L 165.653 223.678 C 165.653 223.353 165.782 223.271 165.997 223.271 C 166.511 223.271 168.144 223.393 170.634 223.393 C 173.511 223.393 175.486 223.271 175.83 223.271 C 176.088 223.271 176.173 223.434 176.173 223.678 L 176.173 224.492 C 176.173 224.695 176.088 224.777 175.744 224.777 L 174.027 224.777 C 173.597 224.777 173.426 225.102 173.339 225.835 C 173.254 226.323 173.254 227.787 173.254 229.333 L 173.254 233.727 C 173.254 237.104 173.254 239.708 173.339 240.358 C 173.382 240.684 173.254 240.847 172.996 240.847 C 172.738 240.847 172.394 240.766 171.965 240.603 C 171.235 240.318 166.984 238.894 166.383 238.65 C 166.168 238.568 166.082 238.487 166.082 238.325 L 166.082 237.877 C 166.082 237.714 166.125 237.592 166.511 237.511 C 168.487 237.022 168.745 236.209 168.745 234.989 L 168.745 229.252 Z M 172.996 247.478 C 172.996 248.414 172.18 249.594 170.462 249.594 C 168.745 249.594 167.585 248.496 167.585 247.316 C 167.585 245.933 168.873 245.037 170.205 245.037 C 172.137 245.037 172.996 246.299 172.996 247.478 Z M 188.069 225.387 C 188.67 223.638 190.044 222.905 191.675 222.905 C 194.166 222.905 195.196 224.533 195.626 225.265 C 195.798 225.672 195.712 225.835 195.54 225.916 L 195.025 226.241 C 194.853 226.323 194.767 226.323 194.596 226.079 C 194.424 225.753 193.823 225.428 193.221 225.428 C 192.449 225.428 192.105 226.079 192.105 228.276 L 192.105 230.229 L 192.019 236.657 C 192.019 237.755 191.933 238.894 190.988 239.708 C 190.215 240.358 189.443 240.847 187.038 240.847 C 184.204 240.847 181.885 239.871 180.081 238.568 C 178.793 237.674 178.106 236.372 178.106 235.232 C 178.106 234.338 178.793 233.849 179.566 233.849 C 181.37 233.849 182.143 234.744 182.143 236.209 C 182.143 237.185 181.713 237.795 182.314 238.202 C 183.001 238.691 184.032 238.935 184.805 238.935 C 185.75 238.935 186.523 238.772 186.952 238.325 C 187.467 237.836 187.553 236.86 187.639 236.046 L 187.639 233.931 C 186.694 233.28 185.063 232.629 182.4 231.408 C 179.309 230.106 178.45 228.276 178.45 226.404 C 178.45 224.126 179.824 222.905 181.413 222.905 C 182.271 222.905 183.173 222.905 184.161 223.19 C 185.835 223.719 186.952 224.41 187.896 225.387 L 188.069 225.387 Z M 187.639 227.096 C 187.639 226.363 186.093 225.224 184.891 225.143 C 183.86 225.143 182.916 225.957 182.916 227.625 C 182.916 230.595 185.75 231.286 187.639 232.425 L 187.639 227.096 Z M 212.417 227.096 C 212.287 227.218 212.116 227.218 212.03 227.136 C 210.871 226.282 209.539 225.59 207.392 225.59 C 206.018 225.59 204.128 225.997 202.969 227.787 C 201.38 230.269 201.294 231.937 201.294 234.378 C 201.294 237.267 203.442 239.098 205.159 239.098 C 206.276 239.098 207.22 238.813 207.822 237.43 C 208.251 236.372 208.938 235.395 210.398 235.395 C 211.6 235.395 212.287 236.209 212.287 237.185 C 212.287 238.406 211.171 240.847 206.19 240.847 C 203.785 240.847 201.724 240.033 199.92 238.487 C 197.774 236.616 196.742 233.768 196.742 231.205 C 196.742 229.171 197.172 227.543 198.804 225.59 C 200.436 223.638 202.755 222.905 205.674 222.905 C 208.852 222.905 211.858 224.777 212.931 226.038 C 213.103 226.241 213.06 226.404 212.931 226.526 L 212.417 227.096 Z M 217.14 229.252 C 217.14 228.113 217.097 226.811 217.054 225.59 C 217.011 224.939 216.796 224.777 216.367 224.777 L 214.477 224.777 C 214.219 224.777 214.048 224.695 214.048 224.451 L 214.048 223.678 C 214.048 223.353 214.177 223.271 214.391 223.271 C 214.907 223.271 216.539 223.393 219.029 223.393 C 221.906 223.393 223.881 223.271 224.225 223.271 C 224.482 223.271 224.569 223.434 224.569 223.678 L 224.569 224.492 C 224.569 224.695 224.483 224.777 224.139 224.777 L 222.421 224.777 C 221.992 224.777 221.82 225.102 221.735 225.835 C 221.648 226.323 221.648 227.787 221.648 229.333 L 221.648 233.727 C 221.648 237.104 221.648 239.708 221.735 240.358 C 221.777 240.684 221.648 240.847 221.391 240.847 C 221.133 240.847 220.79 240.766 220.36 240.603 C 219.63 240.318 215.379 238.894 214.778 238.65 C 214.563 238.568 214.477 238.487 214.477 238.325 L 214.477 237.877 C 214.477 237.714 214.52 237.592 214.907 237.511 C 216.882 237.022 217.14 236.209 217.14 234.989 L 217.14 229.252 Z M 221.391 247.478 C 221.391 248.414 220.575 249.594 218.857 249.594 C 217.14 249.594 215.98 248.496 215.98 247.316 C 215.98 245.933 217.268 245.037 218.6 245.037 C 220.532 245.037 221.391 246.299 221.391 247.478 Z M 236.034 240.847 C 234.274 240.847 232.041 240.521 229.937 238.894 C 227.36 236.941 226.329 234.093 226.329 232.141 C 226.329 229.659 226.759 227.95 228.648 225.835 C 230.58 223.638 232.899 222.905 235.605 222.905 C 238.482 222.905 241.058 223.963 242.819 225.835 C 244.45 227.543 245.481 229.74 245.481 232.018 C 245.481 234.419 244.536 236.535 242.518 238.447 C 241.058 239.789 238.911 240.847 236.034 240.847 Z M 235.948 224.614 C 234.231 224.614 233.286 225.265 232.556 226.363 C 231.396 228.113 231.225 229.659 231.225 232.018 C 231.225 234.989 231.74 236.697 233.071 238.121 C 233.801 238.894 234.66 239.22 235.776 239.22 C 237.752 239.22 240.242 236.616 240.242 232.141 C 240.242 227.991 238.782 224.614 235.948 224.614 Z M 234.617 243.166 C 234.703 243.085 234.875 243.085 234.96 243.166 L 240.457 246.746 C 242.261 247.926 241.316 250.163 239.684 250.082 C 238.825 250.123 238.138 249.553 237.579 248.78 L 234.102 243.898 C 234.016 243.817 234.016 243.654 234.102 243.573 L 234.617 243.166 Z M 248.701 238.406 C 248.443 238.325 248.272 238.162 248.272 237.999 L 248.272 237.674 C 248.272 237.511 248.358 237.348 248.615 237.267 L 248.959 237.104 C 249.989 236.616 250.763 235.965 250.763 234.744 L 250.763 225.59 C 250.763 224.939 250.161 224.777 249.646 224.777 L 248.787 224.777 C 248.443 224.777 248.358 224.695 248.358 224.451 L 248.358 223.678 C 248.358 223.434 248.443 223.271 248.615 223.271 C 248.873 223.271 250.247 223.393 252.91 223.393 C 255.486 223.393 256.689 223.271 256.946 223.271 C 257.204 223.271 257.29 223.434 257.29 223.678 L 257.29 224.41 C 257.29 224.695 257.204 224.777 256.86 224.777 L 256.087 224.777 C 255.486 224.777 255.271 225.265 255.271 226.16 L 255.271 234.541 C 255.271 235.639 255.486 236.779 256.173 237.43 C 257.204 238.325 258.235 238.487 258.921 238.487 C 259.866 238.487 260.639 238.487 261.498 237.755 C 262.528 236.941 262.615 235.884 262.615 234.256 L 262.615 229.577 C 262.615 227.95 262.572 226.811 262.443 225.753 C 262.357 225.021 262.013 224.777 261.67 224.777 L 260.811 224.777 C 260.382 224.777 260.295 224.695 260.295 224.451 L 260.295 223.76 C 260.295 223.434 260.382 223.271 260.639 223.271 C 260.897 223.271 262.271 223.393 264.848 223.393 C 267.853 223.393 269.142 223.271 269.485 223.271 C 269.743 223.271 269.829 223.353 269.829 223.556 L 269.829 224.492 C 269.829 224.695 269.699 224.777 269.313 224.777 L 268.111 224.777 C 267.596 224.777 267.08 225.021 267.08 225.916 C 267.08 226.73 267.123 228.52 267.123 229.822 L 267.123 235.68 C 267.123 237.348 266.651 238.568 264.761 239.871 C 263.817 240.603 262.443 240.847 260.982 240.847 C 259.694 240.847 258.578 240.44 257.547 239.871 C 256.689 239.463 255.916 238.813 255.4 238.243 L 255.143 238.243 L 254.799 240.358 C 254.713 240.684 254.541 240.847 254.284 240.847 C 254.026 240.847 253.768 240.684 253.425 240.521 L 248.701 238.406 Z M 290.183 236.25 C 290.655 236.29 291.385 236.331 291.557 236.331 C 293.36 236.331 294.348 235.232 295.422 233.808 C 296.109 232.913 297.311 231.042 297.74 230.31 C 298.127 229.659 299.802 226.73 300.574 225.59 C 301.132 224.736 301.948 223.638 302.464 223.271 C 303.409 223.312 305.04 223.393 306.243 223.393 C 308.991 223.393 310.108 223.271 310.451 223.271 C 310.709 223.271 310.794 223.393 310.794 223.678 L 310.794 224.533 C 310.794 224.695 310.709 224.817 310.451 224.817 C 309.42 224.817 308.218 224.899 307.402 225.59 C 306.758 226.16 304.01 229.822 303.752 230.229 C 303.409 230.716 300.746 234.541 300.231 235.192 C 299.63 235.924 298.857 236.657 297.654 237.063 L 297.654 237.226 C 302.378 237.958 305.642 240.074 305.642 245.2 C 305.642 246.746 304.868 248.455 303.323 249.757 C 301.605 251.221 298.943 252.32 295.507 252.32 C 294.219 252.32 290.268 252.198 287.864 252.198 C 283.655 252.198 282.282 252.32 281.981 252.32 C 281.766 252.32 281.68 252.239 281.68 252.035 L 281.68 250.937 C 281.68 250.774 281.766 250.692 281.981 250.692 L 283.655 250.692 C 284.429 250.692 285.03 250.041 285.03 248.658 L 285.03 237.958 C 285.03 234.134 285.03 230.31 284.944 226.241 C 284.944 225.143 284.257 224.899 283.312 224.899 L 281.852 224.899 C 281.68 224.899 281.595 224.777 281.595 224.573 L 281.595 223.638 C 281.595 223.393 281.68 223.271 281.938 223.271 C 282.367 223.271 283.398 223.393 287.606 223.393 C 292.072 223.393 292.931 223.271 293.489 223.271 C 293.833 223.271 293.961 223.353 293.961 223.638 L 293.961 224.614 C 293.961 224.777 293.875 224.899 293.618 224.899 L 291.471 224.899 C 290.784 224.899 290.483 225.631 290.354 226.445 C 290.268 227.055 290.182 231.612 290.182 234.052 L 290.183 236.25 Z M 290.355 249.431 C 290.355 249.919 290.526 250.408 290.87 250.611 C 291.213 250.814 291.728 250.855 292.415 250.855 C 294.563 250.855 296.538 250.408 298.084 249.106 C 299.157 248.17 299.973 246.421 299.973 244.549 C 299.973 242.678 298.599 237.552 291.901 237.552 C 291.385 237.552 290.87 237.633 290.268 237.714 L 290.355 249.431 Z M 315.99 233.686 L 326.382 233.686 C 327.155 233.686 327.584 233.727 327.584 234.338 C 327.584 236.006 325.995 240.847 321.1 240.847 C 317.364 240.847 315.432 240.033 313.628 237.836 C 311.782 235.558 311.524 234.052 311.524 231.815 C 311.524 229.293 311.954 227.258 313.929 225.102 C 315.432 223.475 317.364 222.905 320.112 222.905 C 324.836 222.905 327.026 225.672 327.927 227.218 C 328.228 227.747 328.143 227.909 327.927 228.031 L 327.284 228.398 C 327.112 228.479 326.94 228.479 326.768 228.194 C 325.867 226.893 324.235 225.835 321.573 225.835 C 319.125 225.835 315.99 228.275 315.99 232.425 L 315.99 233.686 Z M 316.119 235.151 C 316.677 237.877 317.965 239.342 320.069 239.342 C 322.302 239.342 322.732 236.941 322.732 235.721 C 322.732 235.395 322.216 235.151 321.315 235.151 L 316.119 235.151 Z M 344.46 229.577 C 344.46 228.276 344.46 226.16 344.374 225.59 C 344.288 224.939 343.687 224.777 343.172 224.777 L 342.442 224.777 C 342.227 224.777 342.141 224.695 342.141 224.533 L 342.141 223.556 C 342.141 223.353 342.227 223.271 342.485 223.271 C 342.914 223.271 344.46 223.393 347.036 223.393 C 349.656 223.393 351.03 223.271 351.288 223.271 C 351.546 223.271 351.631 223.393 351.631 223.597 L 351.631 224.492 C 351.631 224.695 351.546 224.777 351.202 224.777 L 350.429 224.777 C 349.742 224.777 348.969 224.858 348.969 225.428 L 348.969 230.798 L 348.969 233.239 C 348.969 235.558 349.055 237.592 347.08 239.22 C 345.791 240.277 344.675 240.847 342.786 240.847 C 340.767 240.847 338.448 239.952 337.246 238.365 L 336.988 238.365 L 336.988 240.888 C 336.988 242.881 336.988 251.1 337.074 251.832 C 337.16 252.483 337.074 252.808 336.731 252.808 C 336.301 252.808 336.044 252.646 335.529 252.483 C 334.154 251.832 331.234 250.449 329.946 250.123 C 329.431 249.879 329.345 249.797 329.345 249.635 L 329.345 249.228 C 329.345 249.065 329.431 248.984 329.688 248.903 L 330.461 248.658 C 331.921 248.089 332.437 247.275 332.437 244.997 L 332.522 230.472 C 332.522 228.601 332.48 226.241 332.308 225.428 C 332.179 224.939 331.578 224.777 330.891 224.777 L 329.817 224.777 C 329.602 224.777 329.431 224.695 329.431 224.492 L 329.431 223.597 C 329.431 223.353 329.559 223.271 329.774 223.271 C 330.118 223.271 331.749 223.393 334.412 223.393 C 336.645 223.393 338.534 223.271 338.878 223.271 C 339.135 223.271 339.221 223.434 339.221 223.678 L 339.221 224.41 C 339.221 224.695 339.05 224.777 338.792 224.777 L 337.762 224.777 C 337.16 224.777 336.988 225.183 336.988 226.485 L 336.988 235.273 C 336.988 236.046 337.418 236.86 337.762 237.267 C 338.706 238.162 339.822 238.731 340.939 238.731 C 341.969 238.731 342.657 238.406 343.344 237.755 C 344.46 236.697 344.46 234.419 344.46 232.303 L 344.46 229.577 Z M 363.698 225.387 C 364.299 223.638 365.673 222.905 367.305 222.905 C 369.795 222.905 370.826 224.533 371.255 225.265 C 371.427 225.672 371.341 225.835 371.17 225.916 L 370.654 226.241 C 370.483 226.323 370.397 226.323 370.225 226.079 C 370.053 225.753 369.452 225.428 368.851 225.428 C 368.078 225.428 367.735 226.079 367.735 228.276 L 367.735 230.229 L 367.648 236.657 C 367.648 237.755 367.563 238.894 366.618 239.708 C 365.845 240.358 365.072 240.847 362.668 240.847 C 359.833 240.847 357.515 239.871 355.711 238.568 C 354.423 237.674 353.736 236.372 353.736 235.232 C 353.736 234.338 354.423 233.849 355.196 233.849 C 356.999 233.849 357.772 234.744 357.772 236.209 C 357.772 237.185 357.343 237.795 357.944 238.202 C 358.631 238.691 359.661 238.935 360.434 238.935 C 361.379 238.935 362.152 238.772 362.581 238.325 C 363.097 237.836 363.182 236.86 363.269 236.046 L 363.269 233.931 C 362.324 233.28 360.692 232.629 358.03 231.408 C 354.938 230.106 354.079 228.276 354.079 226.404 C 354.079 224.126 355.453 222.905 357.042 222.905 C 357.901 222.905 358.803 222.905 359.79 223.19 C 361.465 223.719 362.581 224.41 363.526 225.387 L 363.698 225.387 Z M 363.269 227.096 C 363.269 226.363 361.723 225.224 360.52 225.143 C 359.49 225.143 358.545 225.956 358.545 227.625 C 358.545 230.594 361.379 231.286 363.269 232.425 L 363.269 227.096 Z M 377.181 223.963 C 378.384 223.393 380.102 222.905 382.678 222.905 C 387.917 222.905 392.125 227.869 392.125 232.344 C 392.125 234.581 391.653 236.29 390.88 237.43 C 389.549 239.423 387.273 240.847 384.61 240.847 C 382.42 240.847 380.188 240.115 378.727 238.772 L 378.77 243.654 C 378.813 247.194 378.985 251.832 378.985 252.157 C 379.071 252.564 378.899 252.808 378.556 252.808 C 378.212 252.808 377.868 252.646 377.267 252.32 C 375.893 251.669 373.403 250.611 371.685 250.041 C 371.341 249.96 371.256 249.797 371.256 249.716 L 371.256 249.309 C 371.256 249.146 371.341 249.065 371.857 248.984 L 372.372 248.821 C 373.746 248.414 374.219 247.926 374.219 245.16 L 374.304 230.31 C 374.304 227.38 374.262 223.963 374.176 223.393 C 374.176 223.23 374.176 223.149 374.347 223.068 L 374.949 222.905 C 375.121 222.905 375.292 222.905 375.507 223.027 L 377.181 223.963 Z M 378.727 237.185 C 379.672 237.999 380.875 238.406 382.077 238.406 C 385.469 238.406 387.53 235.762 387.53 231.042 C 387.53 229.252 387.316 227.95 386.414 226.485 C 385.427 224.899 383.88 224.41 382.506 224.41 C 381.046 224.41 379.844 225.265 379.329 226.241 C 378.813 227.462 378.727 228.764 378.727 232.181 L 378.727 237.185 Z M 397.321 229.252 C 397.321 228.113 397.278 226.811 397.235 225.59 C 397.192 224.939 396.977 224.777 396.548 224.777 L 394.658 224.777 C 394.401 224.777 394.229 224.695 394.229 224.451 L 394.229 223.678 C 394.229 223.353 394.358 223.271 394.573 223.271 C 395.088 223.271 396.72 223.393 399.21 223.393 C 402.087 223.393 404.063 223.271 404.406 223.271 C 404.664 223.271 404.75 223.434 404.75 223.678 L 404.75 224.492 C 404.75 224.695 404.664 224.777 404.32 224.777 L 402.603 224.777 C 402.173 224.777 402.002 225.102 401.916 225.835 C 401.83 226.323 401.83 227.787 401.83 229.333 L 401.83 233.727 C 401.83 237.104 401.83 239.708 401.916 240.358 C 401.959 240.684 401.83 240.847 401.572 240.847 C 401.314 240.847 400.971 240.766 400.541 240.603 C 399.811 240.318 395.56 238.894 394.959 238.65 C 394.745 238.568 394.658 238.487 394.658 238.325 L 394.658 237.877 C 394.658 237.714 394.702 237.592 395.088 237.511 C 397.063 237.022 397.321 236.209 397.321 234.989 L 397.321 229.252 Z M 401.572 247.478 C 401.572 248.414 400.756 249.594 399.038 249.594 C 397.321 249.594 396.161 248.496 396.161 247.316 C 396.161 245.933 397.45 245.037 398.781 245.037 C 400.713 245.037 401.572 246.299 401.572 247.478 Z M 408.7 237.389 L 408.7 226.241 C 408.7 225.102 408.056 224.777 407.627 224.777 L 405.995 224.777 C 405.48 224.777 405.394 224.695 405.394 224.451 L 405.394 223.678 C 405.394 223.434 405.48 223.271 405.738 223.271 C 406.081 223.271 407.798 223.393 411.062 223.393 C 414.068 223.393 415.958 223.271 416.301 223.271 C 416.473 223.271 416.559 223.434 416.559 223.678 L 416.559 224.41 C 416.559 224.695 416.473 224.777 416.044 224.777 L 414.412 224.777 C 413.467 224.777 413.381 225.346 413.295 226.079 C 413.209 227.299 413.209 231.449 413.209 233.321 L 413.209 239.179 C 413.209 241.417 413.295 249.879 413.381 252.076 C 413.381 252.646 413.209 252.808 412.951 252.808 C 412.78 252.808 412.522 252.727 412.007 252.564 C 410.632 251.75 407.284 250.692 405.566 250.204 C 405.308 250.123 405.222 249.96 405.222 249.879 L 405.222 249.391 C 405.222 249.228 405.222 249.146 405.48 249.065 L 406.339 248.821 C 407.713 248.414 408.443 247.763 408.529 246.38 C 408.614 245.322 408.7 241.823 408.7 238.975 L 408.7 237.389 Z M 420.123 229.252 C 420.123 228.113 420.08 226.811 420.037 225.59 C 419.994 224.939 419.779 224.777 419.35 224.777 L 417.46 224.777 C 417.203 224.777 417.031 224.695 417.031 224.451 L 417.031 223.678 C 417.031 223.353 417.16 223.271 417.375 223.271 C 417.89 223.271 419.522 223.393 422.012 223.393 C 424.889 223.393 426.865 223.271 427.208 223.271 C 427.466 223.271 427.552 223.434 427.552 223.678 L 427.552 224.492 C 427.552 224.695 427.466 224.777 427.122 224.777 L 425.405 224.777 C 424.975 224.777 424.804 225.102 424.718 225.835 C 424.632 226.323 424.632 227.787 424.632 229.333 L 424.632 233.727 C 424.632 237.104 424.632 239.708 424.718 240.358 C 424.761 240.684 424.632 240.847 424.374 240.847 C 424.116 240.847 423.773 240.766 423.343 240.603 C 422.613 240.318 418.362 238.894 417.761 238.65 C 417.546 238.568 417.46 238.487 417.46 238.325 L 417.46 237.877 C 417.46 237.714 417.504 237.592 417.89 237.511 C 419.865 237.022 420.123 236.209 420.123 234.989 L 420.123 229.252 Z M 424.374 247.478 C 424.374 248.414 423.558 249.594 421.84 249.594 C 420.123 249.594 418.963 248.496 418.963 247.316 C 418.963 245.933 420.252 245.037 421.583 245.037 C 423.515 245.037 424.374 246.299 424.374 247.478 Z M 431.717 238.081 L 431.717 232.812 C 431.717 231.266 431.588 228.018 431.588 226.56 C 431.588 224.858 433.521 222.905 436.097 222.905 C 439.103 222.905 440.906 224.126 441.508 224.533 C 441.679 224.695 441.765 224.858 441.679 225.102 L 441.422 225.584 C 441.336 225.787 441.207 225.787 440.906 225.665 C 440.306 225.387 439.361 225.183 438.416 225.183 C 437.557 225.183 436.14 225.828 436.14 228.994 L 436.14 232.649 C 436.14 234.433 436.183 236.379 436.269 238.081 L 441.465 238.081 C 441.723 238.081 441.851 238.162 441.894 238.325 L 442.323 240.033 C 442.366 240.196 442.281 240.358 442.023 240.358 L 436.355 240.358 L 436.527 244.387 C 436.527 244.712 436.355 244.956 436.011 244.956 C 435.753 244.956 435.496 244.875 435.324 244.549 C 434.379 242.841 430.644 239.83 429.441 239.423 C 428.883 239.22 428.625 238.975 428.625 238.65 C 428.625 238.243 428.883 238.081 429.226 238.081 L 431.717 238.081 Z M 453.66 225.387 C 454.261 223.638 455.635 222.905 457.267 222.905 C 459.758 222.905 460.788 224.533 461.218 225.265 C 461.389 225.672 461.304 225.835 461.132 225.916 L 460.617 226.241 C 460.445 226.323 460.359 226.323 460.187 226.079 C 460.015 225.753 459.414 225.428 458.813 225.428 C 458.041 225.428 457.697 226.079 457.697 228.276 L 457.697 230.229 L 457.61 236.657 C 457.61 237.755 457.525 238.894 456.58 239.708 C 455.807 240.358 455.034 240.847 452.63 240.847 C 449.795 240.847 447.477 239.871 445.673 238.568 C 444.385 237.674 443.698 236.372 443.698 235.232 C 443.698 234.338 444.385 233.849 445.158 233.849 C 446.961 233.849 447.734 234.744 447.734 236.209 C 447.734 237.185 447.305 237.795 447.906 238.202 C 448.593 238.691 449.624 238.935 450.397 238.935 C 451.341 238.935 452.114 238.772 452.544 238.325 C 453.059 237.836 453.145 236.86 453.231 236.046 L 453.231 233.931 C 452.286 233.28 450.655 232.629 447.992 231.408 C 444.9 230.106 444.041 228.276 444.041 226.404 C 444.041 224.126 445.415 222.905 447.004 222.905 C 447.863 222.905 448.765 222.905 449.752 223.19 C 451.427 223.719 452.544 224.41 453.488 225.387 L 453.66 225.387 Z M 453.231 227.096 C 453.231 226.363 451.685 225.224 450.482 225.143 C 449.452 225.143 448.507 225.956 448.507 227.625 C 448.507 230.594 451.341 231.286 453.231 232.425 L 453.231 227.096 Z M 478.008 227.096 C 477.879 227.218 477.707 227.218 477.621 227.136 C 476.462 226.282 475.131 225.59 472.984 225.59 C 471.609 225.59 469.72 225.997 468.561 227.787 C 466.972 230.269 466.886 231.937 466.886 234.378 C 466.886 237.267 469.033 239.098 470.751 239.098 C 471.867 239.098 472.812 238.813 473.413 237.43 C 473.843 236.372 474.529 235.395 475.989 235.395 C 477.192 235.395 477.879 236.209 477.879 237.185 C 477.879 238.406 476.762 240.847 471.782 240.847 C 469.377 240.847 467.315 240.033 465.512 238.487 C 463.365 236.616 462.334 233.768 462.334 231.205 C 462.334 229.171 462.764 227.543 464.395 225.59 C 466.027 223.638 468.346 222.905 471.266 222.905 C 474.444 222.905 477.45 224.777 478.523 226.038 C 478.695 226.241 478.652 226.404 478.523 226.526 L 478.008 227.096 Z M 482.731 229.252 C 482.731 228.113 482.689 226.811 482.646 225.59 C 482.603 224.939 482.388 224.777 481.958 224.777 L 480.069 224.777 C 479.811 224.777 479.64 224.695 479.64 224.451 L 479.64 223.678 C 479.64 223.353 479.768 223.271 479.983 223.271 C 480.499 223.271 482.13 223.393 484.621 223.393 C 487.498 223.393 489.473 223.271 489.817 223.271 C 490.074 223.271 490.16 223.434 490.16 223.678 L 490.16 224.492 C 490.16 224.695 490.074 224.777 489.731 224.777 L 488.013 224.777 C 487.583 224.777 487.412 225.102 487.326 225.835 C 487.24 226.323 487.24 227.787 487.24 229.333 L 487.24 233.727 C 487.24 237.104 487.24 239.708 487.326 240.358 C 487.369 240.684 487.24 240.847 486.982 240.847 C 486.725 240.847 486.381 240.766 485.952 240.603 C 485.222 240.318 480.971 238.894 480.37 238.65 C 480.155 238.568 480.069 238.487 480.069 238.325 L 480.069 237.877 C 480.069 237.714 480.112 237.592 480.499 237.511 C 482.474 237.022 482.731 236.209 482.731 234.989 L 482.731 229.252 Z M 486.982 247.478 C 486.982 248.414 486.167 249.594 484.449 249.594 C 482.731 249.594 481.572 248.496 481.572 247.316 C 481.572 245.933 482.86 245.037 484.191 245.037 C 486.124 245.037 486.982 246.299 486.982 247.478 Z M 501.626 240.847 C 499.865 240.847 497.632 240.521 495.528 238.894 C 492.952 236.941 491.921 234.093 491.921 232.14 C 491.921 229.659 492.35 227.95 494.24 225.835 C 496.172 223.638 498.491 222.905 501.196 222.905 C 504.073 222.905 506.65 223.963 508.41 225.835 C 510.042 227.543 511.073 229.74 511.073 232.018 C 511.073 234.419 510.128 236.535 508.109 238.447 C 506.65 239.789 504.503 240.847 501.626 240.847 Z M 501.54 224.614 C 499.822 224.614 498.878 225.265 498.147 226.363 C 496.988 228.113 496.817 229.659 496.817 232.018 C 496.817 234.989 497.332 236.697 498.663 238.121 C 499.393 238.894 500.252 239.22 501.368 239.22 C 503.343 239.22 505.834 236.616 505.834 232.141 C 505.834 227.991 504.374 224.614 501.54 224.614 Z M 500.209 243.166 C 500.294 243.085 500.466 243.085 500.552 243.166 L 506.049 246.746 C 507.852 247.926 506.908 250.163 505.275 250.082 C 504.417 250.123 503.73 249.553 503.171 248.78 L 499.693 243.898 C 499.608 243.817 499.608 243.654 499.693 243.573 L 500.209 243.166 Z M 514.293 238.406 C 514.035 238.325 513.864 238.162 513.864 237.999 L 513.864 237.674 C 513.864 237.511 513.95 237.348 514.207 237.267 L 514.551 237.104 C 515.581 236.616 516.355 235.965 516.355 234.744 L 516.355 225.59 C 516.355 224.939 515.753 224.777 515.238 224.777 L 514.379 224.777 C 514.035 224.777 513.95 224.695 513.95 224.451 L 513.95 223.678 C 513.95 223.434 514.035 223.271 514.207 223.271 C 514.465 223.271 515.839 223.393 518.502 223.393 C 521.078 223.393 522.28 223.271 522.538 223.271 C 522.796 223.271 522.882 223.434 522.882 223.678 L 522.882 224.41 C 522.882 224.695 522.796 224.777 522.452 224.777 L 521.679 224.777 C 521.078 224.777 520.863 225.265 520.863 226.16 L 520.863 234.541 C 520.863 235.639 521.078 236.779 521.765 237.43 C 522.796 238.325 523.826 238.487 524.513 238.487 C 525.458 238.487 526.231 238.487 527.09 237.755 C 528.12 236.941 528.206 235.884 528.206 234.256 L 528.206 229.577 C 528.206 227.95 528.163 226.811 528.034 225.753 C 527.949 225.021 527.605 224.777 527.262 224.777 L 526.403 224.777 C 525.973 224.777 525.887 224.695 525.887 224.451 L 525.887 223.76 C 525.887 223.434 525.973 223.271 526.231 223.271 C 526.488 223.271 527.863 223.393 530.439 223.393 C 533.445 223.393 534.733 223.271 535.077 223.271 C 535.335 223.271 535.42 223.353 535.42 223.556 L 535.42 224.492 C 535.42 224.695 535.291 224.777 534.905 224.777 L 533.703 224.777 C 533.187 224.777 532.672 225.021 532.672 225.916 C 532.672 226.73 532.715 228.52 532.715 229.822 L 532.715 235.68 C 532.715 237.348 532.243 238.568 530.353 239.871 C 529.408 240.603 528.034 240.847 526.574 240.847 C 525.286 240.847 524.17 240.44 523.139 239.871 C 522.28 239.463 521.507 238.813 520.992 238.243 L 520.734 238.243 L 520.391 240.358 C 520.305 240.684 520.133 240.847 519.876 240.847 C 519.618 240.847 519.36 240.684 519.017 240.521 L 514.293 238.406 Z M 552.339 246.746 L 552.597 246.746 C 553.112 246.177 559.983 238.04 560.584 237.47 C 561.099 236.819 564.449 232.995 567.455 229.496 C 570.117 226.485 572.435 223.963 572.779 223.556 C 573.123 223.23 573.638 222.905 574.239 222.905 C 574.755 222.905 574.755 223.475 574.755 224.044 L 574.755 234.785 C 574.755 238.935 575.184 245.77 575.398 248.536 C 575.527 250.041 575.957 250.692 576.816 250.692 L 578.018 250.692 C 578.19 250.692 578.275 250.855 578.275 251.1 L 578.275 252.035 C 578.275 252.157 578.19 252.32 577.846 252.32 C 577.331 252.32 576.301 252.198 573.724 252.198 C 570.804 252.198 569.43 252.32 568.914 252.32 C 568.571 252.32 568.571 252.239 568.571 251.994 L 568.571 251.059 C 568.571 250.855 568.571 250.692 568.828 250.692 L 570.203 250.692 C 571.233 250.692 572.178 250.123 572.479 249.146 C 572.693 248.455 572.865 244.468 572.951 242.922 C 573.036 240.888 573.036 238.854 573.036 235.273 L 573.036 231.042 L 572.865 231.042 C 572.178 231.856 565.479 239.748 564.878 240.399 C 564.019 241.539 555.603 251.547 555.173 251.954 C 554.915 252.198 554.658 252.32 554.142 252.32 C 553.885 252.32 553.499 252.279 552.94 252.279 C 552.425 252.239 551.781 252.198 551.051 252.198 C 549.161 252.198 548.002 252.198 547.229 252.239 C 546.456 252.279 546.113 252.32 545.898 252.32 C 545.726 252.32 545.64 252.239 545.64 252.076 L 545.64 250.977 C 545.64 250.814 545.726 250.733 545.898 250.692 L 547.272 250.692 C 549.161 250.692 550.622 248.821 550.622 246.38 L 550.622 241.213 C 550.622 234.704 550.364 229.008 550.321 228.276 C 550.106 225.794 549.505 224.899 548.388 224.899 L 546.929 224.899 C 546.756 224.899 546.671 224.736 546.671 224.655 L 546.671 223.638 C 546.671 223.353 546.756 223.271 546.929 223.271 C 547.358 223.271 550.278 223.393 551.395 223.393 C 553.026 223.393 555.603 223.271 556.032 223.271 C 556.375 223.271 556.375 223.353 556.375 223.597 L 556.375 224.533 C 556.375 224.736 556.375 224.899 556.032 224.899 L 554.915 224.899 C 553.369 224.899 552.854 225.875 552.768 227.909 C 552.683 229.171 552.339 234.866 552.339 241.783 L 552.339 246.746 Z M 585.146 233.686 L 595.538 233.686 C 596.311 233.686 596.74 233.727 596.74 234.338 C 596.74 236.006 595.151 240.847 590.256 240.847 C 586.521 240.847 584.588 240.033 582.784 237.836 C 580.938 235.558 580.68 234.052 580.68 231.815 C 580.68 229.293 581.11 227.258 583.085 225.102 C 584.588 223.475 586.521 222.905 589.269 222.905 C 593.992 222.905 596.182 225.672 597.084 227.218 C 597.385 227.747 597.299 227.909 597.084 228.031 L 596.44 228.398 C 596.268 228.479 596.096 228.479 595.924 228.194 C 595.023 226.893 593.391 225.835 590.729 225.835 C 588.281 225.835 585.146 228.275 585.146 232.425 L 585.146 233.686 Z M 585.275 235.151 C 585.833 237.877 587.122 239.342 589.225 239.342 C 591.459 239.342 591.888 236.941 591.888 235.721 C 591.888 235.395 591.372 235.151 590.471 235.151 L 585.275 235.151 Z M 613.187 223.393 C 613.23 223.068 613.444 222.905 613.788 222.905 C 614.131 222.905 614.389 222.987 614.647 223.068 L 619.971 224.492 C 620.143 224.533 620.229 224.614 620.186 224.858 L 620.057 225.509 C 620.015 225.672 619.886 225.712 619.542 225.672 C 619.027 225.59 618.425 225.59 618.168 225.59 C 617.824 225.59 617.395 225.753 617.223 226.974 C 617.137 227.787 617.137 229.74 617.137 231.693 L 617.137 234.622 C 617.137 238.65 617.395 239.708 617.395 240.115 C 617.395 240.277 617.309 240.521 617.051 240.521 C 616.88 240.521 616.708 240.481 616.493 240.44 C 616.278 240.399 616.064 240.358 615.763 240.358 L 610.438 240.358 C 610.052 240.358 609.923 240.318 609.923 240.033 L 609.923 239.301 C 609.923 239.138 610.009 239.057 610.782 238.975 C 611.813 238.894 612.629 238.65 612.629 237.592 L 612.629 228.031 C 612.629 227.543 612.328 226.974 612.156 226.729 C 611.469 225.835 610.181 225.183 609.15 225.183 C 608.206 225.183 607.261 225.102 606.402 226.323 C 605.243 228.031 605.543 230.798 605.543 232.425 L 605.543 234.948 C 605.543 237.755 605.715 239.627 605.715 240.033 C 605.715 240.277 605.543 240.521 605.285 240.521 C 605.157 240.521 604.985 240.481 604.813 240.44 C 604.642 240.399 604.427 240.358 604.169 240.358 L 599.016 240.358 C 598.587 240.358 598.501 240.277 598.501 240.033 L 598.501 239.301 C 598.501 239.057 598.759 239.057 599.445 238.975 C 600.219 238.894 600.82 238.528 600.948 237.511 C 601.034 237.022 601.034 235.558 601.034 234.581 C 601.034 233.727 600.991 232.344 600.991 230.391 C 600.991 228.113 601.034 226.607 602.58 224.695 C 604.083 222.905 605.457 222.905 607.003 222.905 C 609.236 222.905 611.727 224.207 612.671 225.672 L 612.929 225.672 L 613.187 223.393 Z M 624.437 225.875 C 624.437 225.102 624.008 224.777 623.321 224.777 L 621.818 224.777 C 621.517 224.777 621.431 224.695 621.431 224.451 L 621.431 223.556 C 621.431 223.353 621.517 223.271 621.732 223.271 C 622.076 223.271 623.75 223.393 626.756 223.393 C 629.891 223.393 631.78 223.271 632.081 223.271 C 632.296 223.271 632.382 223.353 632.382 223.556 L 632.382 224.492 C 632.382 224.695 632.296 224.777 632.038 224.777 L 630.148 224.777 C 629.289 224.777 628.946 225.183 628.946 226.485 L 628.946 234.338 C 628.946 234.866 629.118 235.762 629.461 236.331 C 629.976 237.185 630.75 237.511 631.265 237.511 C 631.694 237.511 632.124 237.43 632.467 237.185 C 632.811 237.022 633.326 236.86 633.927 236.86 C 635.044 236.86 636.246 237.918 636.246 239.057 C 636.246 240.196 635.387 241.091 634.013 241.091 C 632.124 241.091 630.32 239.708 628.86 237.43 L 628.688 237.43 L 628.302 240.358 C 628.259 240.603 628.173 240.847 627.915 240.847 C 627.658 240.847 627.486 240.766 627.228 240.684 L 622.032 238.365 C 621.775 238.243 621.689 238.162 621.689 237.999 L 621.689 237.755 C 621.689 237.592 621.775 237.511 622.032 237.43 L 622.806 237.022 C 624.094 236.372 624.437 235.721 624.437 233.849 L 624.437 225.875 Z M 646.552 240.847 C 644.792 240.847 642.558 240.521 640.455 238.894 C 637.878 236.941 636.847 234.093 636.847 232.141 C 636.847 229.659 637.277 227.95 639.167 225.835 C 641.099 223.638 643.417 222.905 646.122 222.905 C 649 222.905 651.576 223.963 653.337 225.835 C 654.969 227.543 655.999 229.74 655.999 232.018 C 655.999 234.419 655.054 236.535 653.036 238.447 C 651.576 239.789 649.429 240.847 646.552 240.847 Z M 646.466 224.614 C 644.748 224.614 643.804 225.265 643.074 226.363 C 641.914 228.113 641.743 229.659 641.743 232.018 C 641.743 234.989 642.258 236.697 643.589 238.121 C 644.319 238.894 645.178 239.22 646.294 239.22 C 648.27 239.22 650.76 236.616 650.76 232.141 C 650.76 227.991 649.3 224.614 646.466 224.614 Z M 660.937 237.389 L 660.937 226.241 C 660.937 225.102 660.293 224.777 659.864 224.777 L 658.232 224.777 C 657.717 224.777 657.631 224.695 657.631 224.451 L 657.631 223.678 C 657.631 223.434 657.717 223.271 657.974 223.271 C 658.318 223.271 660.035 223.393 663.299 223.393 C 666.305 223.393 668.194 223.271 668.538 223.271 C 668.709 223.271 668.796 223.434 668.796 223.678 L 668.796 224.41 C 668.796 224.695 668.709 224.777 668.28 224.777 L 666.648 224.777 C 665.704 224.777 665.618 225.346 665.532 226.079 C 665.446 227.299 665.446 231.449 665.446 233.321 L 665.446 239.179 C 665.446 241.417 665.532 249.879 665.618 252.076 C 665.618 252.646 665.446 252.808 665.188 252.808 C 665.016 252.808 664.759 252.727 664.243 252.564 C 662.869 251.75 659.52 250.692 657.802 250.204 C 657.545 250.123 657.459 249.96 657.459 249.879 L 657.459 249.391 C 657.459 249.228 657.459 249.146 657.717 249.065 L 658.576 248.821 C 659.95 248.414 660.68 247.763 660.765 246.38 C 660.851 245.322 660.937 241.823 660.937 238.975 L 660.937 237.389 Z M 679.617 240.847 C 677.856 240.847 675.623 240.521 673.519 238.894 C 670.943 236.941 669.912 234.093 669.912 232.141 C 669.912 229.659 670.342 227.95 672.231 225.835 C 674.163 223.638 676.482 222.905 679.187 222.905 C 682.064 222.905 684.641 223.963 686.402 225.835 C 688.033 227.543 689.064 229.74 689.064 232.018 C 689.064 234.419 688.119 236.535 686.101 238.447 C 684.641 239.789 682.494 240.847 679.617 240.847 Z M 679.531 224.614 C 677.814 224.614 676.868 225.265 676.138 226.363 C 674.979 228.113 674.807 229.659 674.807 232.018 C 674.807 234.989 675.323 236.697 676.654 238.121 C 677.384 238.894 678.243 239.22 679.359 239.22 C 681.334 239.22 683.825 236.616 683.825 232.141 C 683.825 227.991 682.365 224.614 679.531 224.614 Z M 678.2 243.166 C 678.285 243.085 678.457 243.085 678.543 243.166 L 684.04 246.746 C 685.843 247.926 684.898 250.163 683.267 250.082 C 682.408 250.123 681.721 249.553 681.162 248.78 L 677.684 243.898 C 677.599 243.817 677.599 243.654 677.684 243.573 L 678.2 243.166 Z M 699.713 212.327 C 703.75 212.246 706.755 213.548 708.129 214.606 C 710.019 215.989 710.792 217.535 710.792 219.325 C 710.792 220.546 710.363 222.092 708.645 223.312 C 706.755 224.777 704.608 225.021 701.345 224.858 C 697.566 224.695 695.934 224.695 695.934 226.323 C 695.934 227.299 697.008 228.031 697.781 228.357 C 698.682 228.194 699.284 228.194 700.228 228.194 C 702.246 228.194 704.308 228.682 705.682 230.066 C 706.97 231.374 707.486 233.015 707.486 234.609 C 707.486 235.917 707.228 236.819 706.97 237.308 C 707.314 237.552 707.743 237.552 708 237.552 C 708.344 237.552 708.688 237.308 709.032 237.063 C 709.289 236.819 709.719 236.494 710.363 236.494 C 711.307 236.494 712.08 237.307 712.08 238.121 C 712.166 239.179 711.436 240.074 709.847 240.074 C 708.731 240.074 707.228 239.342 706.197 238.568 C 705.768 238.975 704.05 240.847 700.357 240.847 C 694.818 240.847 692.413 237.592 692.413 234.907 C 692.413 231.449 694.474 229.74 696.106 228.845 L 696.106 228.764 C 694.818 228.194 692.413 226.811 692.413 224.614 C 692.413 223.312 693.444 222.01 695.333 221.603 L 695.333 221.359 C 693.272 220.546 690.867 219 690.867 216.802 C 690.867 215.501 691.468 214.443 693.014 213.588 C 694.904 212.571 697.652 212.327 699.713 212.327 Z M 700.228 229.618 C 699.026 229.618 698.382 229.944 697.781 230.513 C 697.051 231.123 696.707 232.425 696.707 233.727 C 696.707 235.314 696.965 237.185 697.909 238.325 C 698.554 239.057 699.326 239.342 700.228 239.342 C 701.259 239.342 701.86 238.975 702.246 238.528 C 702.676 237.999 703.191 236.941 703.191 235.314 C 703.191 232.425 702.462 229.618 700.228 229.618 Z M 701.173 221.197 C 705.295 221.359 707.099 219.894 707.099 217.535 C 707.185 215.134 703.492 213.914 701.259 213.914 C 698.768 213.914 697.566 214.158 696.235 214.89 C 695.419 215.338 694.689 216.558 694.689 217.697 C 694.689 219.325 696.106 220.627 697.308 220.953 L 701.173 221.197 Z M 715.472 229.252 C 715.472 228.113 715.43 226.811 715.386 225.59 C 715.344 224.939 715.129 224.777 714.7 224.777 L 712.81 224.777 C 712.552 224.777 712.381 224.695 712.381 224.451 L 712.381 223.678 C 712.381 223.353 712.51 223.271 712.724 223.271 C 713.239 223.271 714.871 223.393 717.362 223.393 C 720.239 223.393 722.214 223.271 722.558 223.271 C 722.815 223.271 722.901 223.434 722.901 223.678 L 722.901 224.492 C 722.901 224.695 722.815 224.777 722.472 224.777 L 720.754 224.777 C 720.325 224.777 720.153 225.102 720.067 225.835 C 719.981 226.323 719.981 227.787 719.981 229.333 L 719.981 233.727 C 719.981 237.104 719.981 239.708 720.067 240.358 C 720.11 240.684 719.981 240.847 719.723 240.847 C 719.466 240.847 719.122 240.766 718.693 240.603 C 717.963 240.318 713.712 238.894 713.111 238.65 C 712.896 238.568 712.81 238.487 712.81 238.325 L 712.81 237.877 C 712.81 237.714 712.853 237.592 713.239 237.511 C 715.215 237.022 715.472 236.209 715.472 234.989 L 715.472 229.252 Z M 719.723 247.478 C 719.723 248.414 718.908 249.594 717.19 249.594 C 715.472 249.594 714.313 248.496 714.313 247.316 C 714.313 245.933 715.601 245.037 716.932 245.037 C 718.865 245.037 719.723 246.299 719.723 247.478 Z M 740.336 227.096 C 740.207 227.218 740.035 227.218 739.949 227.136 C 738.79 226.282 737.458 225.59 735.311 225.59 C 733.937 225.59 732.048 225.997 730.888 227.787 C 729.3 230.269 729.213 231.937 729.213 234.378 C 729.213 237.267 731.361 239.098 733.079 239.098 C 734.195 239.098 735.139 238.813 735.741 237.43 C 736.17 236.372 736.857 235.395 738.317 235.395 C 739.519 235.395 740.207 236.209 740.207 237.185 C 740.207 238.406 739.09 240.847 734.109 240.847 C 731.704 240.847 729.643 240.033 727.84 238.487 C 725.693 236.616 724.662 233.768 724.662 231.205 C 724.662 229.171 725.091 227.543 726.723 225.59 C 728.355 223.638 730.674 222.905 733.593 222.905 C 736.772 222.905 739.777 224.777 740.851 226.038 C 741.022 226.241 740.979 226.404 740.851 226.526 L 740.336 227.096 Z M 753.175 225.387 C 753.776 223.638 755.15 222.905 756.782 222.905 C 759.272 222.905 760.303 224.533 760.732 225.265 C 760.904 225.672 760.818 225.835 760.646 225.916 L 760.132 226.241 C 759.96 226.323 759.874 226.323 759.702 226.079 C 759.53 225.753 758.929 225.428 758.328 225.428 C 757.555 225.428 757.211 226.079 757.211 228.276 L 757.211 230.229 L 757.125 236.657 C 757.125 237.755 757.04 238.894 756.095 239.708 C 755.322 240.358 754.549 240.847 752.144 240.847 C 749.31 240.847 746.991 239.871 745.188 238.568 C 743.899 237.674 743.212 236.372 743.212 235.232 C 743.212 234.338 743.899 233.849 744.672 233.849 C 746.476 233.849 747.249 234.744 747.249 236.209 C 747.249 237.185 746.82 237.795 747.421 238.202 C 748.108 238.691 749.138 238.935 749.911 238.935 C 750.856 238.935 751.629 238.772 752.058 238.325 C 752.574 237.836 752.659 236.86 752.746 236.046 L 752.746 233.931 C 751.801 233.28 750.169 232.629 747.506 231.408 C 744.415 230.106 743.556 228.276 743.556 226.404 C 743.556 224.126 744.93 222.905 746.519 222.905 C 747.378 222.905 748.28 222.905 749.267 223.19 C 750.942 223.719 752.058 224.41 753.003 225.387 L 753.175 225.387 Z M 752.746 227.096 C 752.746 226.363 751.2 225.224 749.997 225.143 C 748.967 225.143 748.022 225.956 748.022 227.625 C 748.022 230.594 750.856 231.286 752.746 232.425 L 752.746 227.096 Z M 230.256 340.657 C 232.3 334.688 239.112 314.035 240.474 308.226 C 241.496 303.87 240.133 302.256 235.365 302.256 L 230.938 302.256 C 229.916 302.256 229.575 301.934 229.575 300.965 L 229.575 297.738 C 229.575 296.77 229.916 295.802 231.278 295.802 C 235.025 295.802 240.815 296.286 255.12 296.286 C 273.854 296.286 277.259 295.802 280.325 295.802 C 281.687 295.802 282.028 296.77 282.028 297.738 L 282.028 301.127 C 282.028 301.934 281.687 302.256 280.666 302.256 L 275.216 302.256 C 271.81 302.256 267.382 304.192 264.317 309.678 C 261.932 314.035 251.033 344.046 246.946 356.631 C 243.88 366.957 230.597 403.1 227.531 413.103 C 227.191 414.072 226.51 416.008 225.488 416.008 C 224.636 416.008 223.955 415.362 222.933 414.394 C 220.89 412.458 211.523 407.618 206.073 406.327 C 204.711 406.004 204.37 405.359 204.37 404.713 C 204.37 404.229 204.881 403.261 205.392 402.777 C 206.414 401.809 205.392 398.905 205.052 397.291 C 203.349 393.096 189.554 358.245 188.362 355.017 C 183.253 341.464 170.991 312.421 169.288 309.517 C 166.223 304.515 163.158 302.256 158.389 302.256 L 153.28 302.256 C 152.599 302.256 152.259 301.933 152.259 300.965 L 152.259 297.9 C 152.259 296.77 152.259 295.802 153.28 295.802 C 155.664 295.802 159.411 296.286 172.013 296.286 C 183.934 296.286 191.087 295.802 193.471 295.802 C 194.493 295.802 194.834 296.448 194.834 297.415 L 194.834 301.449 C 194.834 301.933 194.493 302.256 193.13 302.256 L 185.978 302.256 C 182.572 302.256 179.847 304.031 179.847 306.128 C 179.847 306.935 179.847 308.226 180.188 309.517 C 181.039 313.873 189.384 336.946 190.747 340.657 L 230.256 340.657 Z M 193.13 347.112 C 194.323 350.823 209.65 390.514 210.331 392.612 C 210.842 394.064 211.523 394.71 212.545 394.71 C 213.226 394.71 213.567 393.741 214.248 391.805 C 215.27 388.578 226.851 351.79 228.553 347.112 L 193.13 347.112 Z M 324.262 347.273 C 326.136 347.434 329.031 347.595 329.712 347.595 C 336.865 347.595 340.782 343.239 345.039 337.592 C 347.764 334.042 352.533 326.62 354.236 323.715 C 355.768 321.134 362.41 309.517 365.475 304.999 C 367.689 301.611 370.925 297.254 372.969 295.802 C 376.715 295.963 383.187 296.286 387.955 296.286 C 398.854 296.286 403.282 295.802 404.644 295.802 C 405.666 295.802 406.007 296.286 406.007 297.415 L 406.007 300.804 C 406.007 301.449 405.666 301.934 404.644 301.934 C 400.557 301.934 395.789 302.256 392.553 304.999 C 389.999 307.258 379.1 321.779 378.078 323.393 C 376.715 325.329 366.156 340.496 364.113 343.078 C 361.729 345.982 358.663 348.886 353.895 350.5 L 353.895 351.145 C 372.628 354.05 385.571 362.44 385.571 382.77 C 385.571 388.901 382.505 395.678 376.375 400.841 C 369.563 406.649 359.004 411.006 345.38 411.006 C 340.271 411.006 324.603 410.522 315.066 410.522 C 298.377 410.522 292.927 411.006 291.735 411.006 C 290.883 411.006 290.543 410.683 290.543 409.877 L 290.543 405.52 C 290.543 404.875 290.883 404.552 291.735 404.552 L 298.377 404.552 C 301.442 404.552 303.826 401.97 303.826 396.485 L 303.826 354.05 C 303.826 338.883 303.826 323.715 303.485 307.581 C 303.485 303.224 300.761 302.256 297.014 302.256 L 291.224 302.256 C 290.543 302.256 290.202 301.772 290.202 300.965 L 290.202 297.254 C 290.202 296.286 290.543 295.802 291.564 295.802 C 293.268 295.802 297.355 296.286 314.044 296.286 C 331.756 296.286 335.162 295.802 337.375 295.802 C 338.738 295.802 339.249 296.125 339.249 297.254 L 339.249 301.127 C 339.249 301.772 338.908 302.256 337.886 302.256 L 329.371 302.256 C 326.647 302.256 325.454 305.16 324.943 308.387 C 324.603 310.808 324.262 328.879 324.262 338.56 L 324.262 347.273 Z M 324.943 399.55 C 324.943 401.486 325.625 403.423 326.987 404.229 C 328.35 405.036 330.393 405.197 333.118 405.197 C 341.633 405.197 349.467 403.423 355.598 398.259 C 359.855 394.548 363.091 387.61 363.091 380.188 C 363.091 372.766 357.641 352.436 331.075 352.436 C 329.031 352.436 326.987 352.759 324.603 353.081 L 324.943 399.55 Z M 426.613 337.108 L 467.826 337.108 C 470.892 337.108 472.595 337.269 472.595 339.689 C 472.595 346.305 466.294 365.505 446.879 365.505 C 432.063 365.505 424.4 362.278 417.247 353.565 C 409.924 344.53 408.902 338.56 408.902 329.686 C 408.902 319.682 410.605 311.614 418.439 303.063 C 424.4 296.609 432.063 294.35 442.962 294.35 C 461.696 294.35 470.381 305.322 473.957 311.453 C 475.149 313.551 474.809 314.196 473.957 314.68 L 471.403 316.132 C 470.721 316.455 470.04 316.455 469.359 315.325 C 465.783 310.162 459.311 305.967 448.753 305.967 C 439.045 305.967 426.613 315.648 426.613 332.106 L 426.613 337.108 Z M 427.124 342.916 C 429.338 353.727 434.447 359.535 442.792 359.535 C 451.648 359.535 453.351 350.016 453.351 345.175 C 453.351 343.885 451.307 342.916 447.731 342.916 L 427.124 342.916 Z M 506.314 388.901 L 507.336 388.901 C 509.38 386.642 536.628 354.372 539.012 352.113 C 541.056 349.531 554.34 334.365 566.261 320.489 C 576.819 308.549 586.015 298.545 587.378 296.931 C 588.74 295.641 590.784 294.35 593.168 294.35 C 595.212 294.35 595.212 296.609 595.212 298.868 L 595.212 341.464 C 595.212 357.922 596.915 385.029 597.766 396 C 598.277 401.97 599.98 404.552 603.386 404.552 L 608.155 404.552 C 608.836 404.552 609.177 405.197 609.177 406.165 L 609.177 409.877 C 609.177 410.361 608.836 411.006 607.473 411.006 C 605.43 411.006 601.343 410.522 591.125 410.522 C 579.544 410.522 574.094 411.006 572.051 411.006 C 570.689 411.006 570.689 410.683 570.689 409.715 L 570.689 406.004 C 570.689 405.197 570.689 404.552 571.71 404.552 L 577.16 404.552 C 581.247 404.552 584.993 402.293 586.186 398.421 C 587.037 395.678 587.719 379.865 588.059 373.734 C 588.4 365.667 588.4 357.599 588.4 343.4 L 588.4 326.62 L 587.719 326.62 C 584.993 329.847 558.427 361.149 556.042 363.73 C 552.636 368.248 519.257 407.94 517.555 409.554 C 516.533 410.522 515.511 411.006 513.467 411.006 C 512.446 411.006 510.913 410.845 508.699 410.845 C 506.655 410.683 504.1 410.522 501.205 410.522 C 493.712 410.522 489.114 410.522 486.049 410.683 C 482.983 410.845 481.621 411.006 480.769 411.006 C 480.088 411.006 479.747 410.683 479.747 410.038 L 479.747 405.682 C 479.747 405.036 480.088 404.713 480.769 404.552 L 486.219 404.552 C 493.712 404.552 499.502 397.13 499.502 387.449 L 499.502 366.957 C 499.502 341.141 498.481 318.553 498.31 315.648 C 497.459 305.806 495.075 302.256 490.647 302.256 L 484.857 302.256 C 484.175 302.256 483.835 301.611 483.835 301.288 L 483.835 297.254 C 483.835 296.125 484.175 295.802 484.857 295.802 C 486.56 295.802 498.14 296.286 502.568 296.286 C 509.039 296.286 519.257 295.802 520.961 295.802 C 522.323 295.802 522.323 296.125 522.323 297.093 L 522.323 300.804 C 522.323 301.611 522.323 302.256 520.961 302.256 L 516.533 302.256 C 510.402 302.256 508.358 306.129 508.018 314.196 C 507.677 319.198 506.314 341.787 506.314 369.216 L 506.314 388.901 Z M 636.424 337.108 L 677.637 337.108 C 680.703 337.108 682.406 337.269 682.406 339.689 C 682.406 346.305 676.104 365.505 656.69 365.505 C 641.874 365.505 634.21 362.278 627.058 353.565 C 619.735 344.53 618.713 338.56 618.713 329.686 C 618.713 319.682 620.416 311.614 628.25 303.063 C 634.21 296.609 641.874 294.35 652.773 294.35 C 671.507 294.35 680.192 305.322 683.768 311.453 C 684.96 313.551 684.62 314.196 683.768 314.68 L 681.213 316.132 C 680.532 316.455 679.851 316.455 679.17 315.325 C 675.594 310.162 669.122 305.967 658.563 305.967 C 648.856 305.967 636.424 315.648 636.424 332.106 L 636.424 337.108 Z M 636.935 342.916 C 639.149 353.727 644.258 359.535 652.603 359.535 C 661.459 359.535 663.162 350.016 663.162 345.175 C 663.162 343.885 661.118 342.916 657.542 342.916 L 636.935 342.916 Z"/>
  </g>
</svg>