<svg xmlns:dc="http://purl.org/dc/elements/1.1/" xmlns:cc="http://creativecommons.org/ns#" xmlns:rdf="http://www.w3.org/1999/02/22-rdf-syntax-ns#" xmlns:svg="http://www.w3.org/2000/svg" xmlns="http://www.w3.org/2000/svg" xml:space="preserve" id="svg2" version="1.1" viewBox="100.11 106.85 912.65 543.82"><metadata id="metadata8"><rdf:RDF><cc:Work rdf:about=""><dc:format>image/svg+xml</dc:format><dc:type rdf:resource="http://purl.org/dc/dcmitype/StillImage"/></cc:Work></rdf:RDF></metadata><defs id="defs6"/><g transform="matrix(1.3333333,0,0,-1.3333333,0,793.7008)" id="g10"><path id="path12" style="fill:#201f1f;fill-opacity:1;fill-rule:evenodd;stroke:none" d="m 417.3582,515.1348 c 48.9665,0 88.6621,-39.6953 88.6621,-88.6621 0,-0.7633 -0.01,-1.5244 -0.0292,-2.2833 -63.0647,4.9349 -74.403,34.4308 -40.7022,75.8259 -36.3602,-36.7251 -54.087,-37.6945 -79.0599,9.4867 10.9709,-50.5924 -3.4781,-61.7995 -55.222,-62.8415 9.138,39.2392 44.3299,68.4743 86.3512,68.4743 z M 754.6904,162.4388 H 80.4226 v 7.7839 H 754.6904 Z M 94.7506,129.5274 c 0.5156,-1.5052 2.2331,-6.7127 2.5764,-8.1774 0.2579,-1.0984 -0.0856,-1.5054 -1.2881,-1.5054 h -1.116 c -0.2579,0 -0.3435,-0.0814 -0.3435,-0.3255 v -0.8135 c 0,-0.2441 0.0856,-0.4884 0.4291,-0.4884 0.9448,0 2.4049,0.1222 6.0118,0.1222 4.7236,0 5.5822,-0.1222 6.3555,-0.1222 0.3436,0 0.4292,0.2443 0.4292,0.4884 v 0.8544 c 0,0.2032 -0.0856,0.2846 -0.3436,0.2846 h -1.3737 c -0.8591,0 -1.976,0.4884 -2.7484,1.8717 -0.6013,1.0984 -3.3494,8.6658 -4.3801,11.8389 -0.773,2.6039 -4.1227,11.7173 -4.8955,14.2395 -0.0856,0.2441 -0.2576,0.7322 -0.5156,0.7322 -0.2143,0 -0.3861,-0.1627 -0.6437,-0.4067 -0.5154,-0.4885 -2.8772,-1.7088 -4.2511,-2.0345 -0.3436,-0.081 -0.4295,-0.2437 -0.4295,-0.4065 0,-0.1221 0.129,-0.3662 0.2577,-0.4884 0.2574,-0.2437 0,-0.9762 -0.0859,-1.383 -0.4297,-1.0582 -3.9076,-9.8458 -4.2086,-10.6594 -1.2881,-3.4172 -4.3795,-10.7407 -4.8093,-11.4729 -0.7727,-1.2615 -1.5457,-1.8309 -2.7479,-1.8309 h -1.2883 c -0.1721,0 -0.2577,-0.0814 -0.2577,-0.3255 v -0.773 c 0,-0.2846 0,-0.5289 0.2577,-0.5289 0.6012,0 1.5457,0.1222 4.7234,0.1222 3.0061,0 4.8092,-0.1222 5.4104,-0.1222 0.2577,0 0.3439,0.163 0.3439,0.4068 v 1.0173 c 0,0.1219 -0.0862,0.2033 -0.4295,0.2033 h -1.8039 c -0.8584,0 -1.5455,0.4476 -1.5455,0.9768 0,0.2032 0,0.5286 0.0859,0.8541 0.2146,1.0984 2.3187,6.9165 2.6623,7.8519 z m -9.3609,1.6277 c 0.3002,0.9354 4.1655,10.9437 4.337,11.4726 0.1287,0.3663 0.3005,0.5293 0.5582,0.5293 0.1718,0 0.2579,-0.2444 0.4294,-0.7328 0.2574,-0.8132 3.1777,-10.0893 3.6074,-11.2691 z m 24.6912,-11.7987 c 0.0434,-0.1627 0.1718,-0.2848 0.3436,-0.4473 0.4725,-0.3662 2.3618,-1.0581 4.6375,-1.0581 4.2514,0 7.171,2.4412 7.171,5.8589 0,1.383 -0.3432,2.3593 -1.288,3.2544 -1.116,1.1393 -2.3188,1.6277 -4.2942,2.1155 -2.5762,0.6514 -3.8645,1.1393 -3.8645,2.8075 0,1.4238 1.374,2.3187 2.9633,2.3187 1.4165,0 2.1898,-0.7319 2.7046,-1.2608 l 2.0616,-2.1972 c 0.0856,-0.1627 0.2149,-0.2035 0.3436,-0.1627 l 0.8158,0.3663 c 0.0859,0.0813 0.0859,0.2846 0.0431,0.4475 l -0.5585,2.7667 c -0.0428,0.2437 -0.1717,0.4067 -0.8161,0.7322 -0.7727,0.4064 -2.0607,0.8949 -4.1649,0.8949 -1.7609,0 -2.9633,-0.3663 -4.466,-1.3425 -1.5029,-1.0171 -2.1897,-2.4821 -2.1897,-4.2721 0,-2.8885 2.3184,-4.2716 5.2384,-5.0854 3.0058,-0.8135 4.1227,-1.546 4.1227,-3.1731 0,-1.5058 -1.3742,-2.482 -3.049,-2.482 -2.1041,0 -2.9202,0.9762 -3.6932,2.1968 l -1.4171,2.2785 c -0.0858,0.1627 -0.2145,0.1627 -0.3863,0.1222 l -0.8155,-0.2441 c -0.129,-0.0408 -0.1721,-0.1629 -0.129,-0.3257 z m 24.6056,16.4365 c -1.7603,0 -3.9932,-0.3255 -6.0973,-1.9526 -2.5764,-1.953 -3.6077,-4.801 -3.6077,-6.7538 0,-2.4817 0.43,-4.1904 2.3193,-6.3059 1.9321,-2.1969 4.2509,-2.9296 6.9562,-2.9296 2.8772,0 5.4536,1.0581 7.2142,2.9296 1.6316,1.7087 2.6626,3.9055 2.6626,6.1837 0,2.4007 -0.9448,4.5162 -2.9633,6.4285 -1.4599,1.3424 -3.6068,2.4001 -6.484,2.4001 z M 134.6006,119.56 c -1.7175,0 -2.6623,0.6508 -3.3925,1.7492 -1.1594,1.7499 -1.3309,3.2956 -1.3309,5.6551 0,2.9702 0.5154,4.6786 1.8465,6.103 0.7299,0.773 1.5886,1.0985 2.7054,1.0985 1.9752,0 4.4657,-2.6039 4.4657,-7.0793 0,-4.1496 -1.4601,-7.5265 -4.2942,-7.5265 z m 28.1696,2.4817 c -0.1287,0.1222 -0.3008,0.1222 -0.3864,0.0405 -1.1596,-0.8543 -2.4908,-1.546 -4.6378,-1.546 -1.3742,0 -3.2635,0.4071 -4.4229,2.1969 -1.5888,2.482 -1.6747,4.1499 -1.6747,6.5911 0,2.8885 2.1473,4.7194 3.8648,4.7194 1.1166,0 2.0614,-0.2849 2.6626,-1.6679 0.4291,-1.0582 1.116,-2.0344 2.5764,-2.0344 1.2024,0 1.8893,0.8138 1.8893,1.79 0,1.2206 -1.1169,3.6616 -6.0979,3.6616 -2.4046,0 -4.4657,-0.8139 -6.2694,-2.3596 -2.147,-1.8714 -3.1776,-4.7194 -3.1776,-7.2825 0,-2.0341 0.4297,-3.6615 2.0613,-5.6146 1.6319,-1.9525 3.9504,-2.6852 6.8706,-2.6852 3.1777,0 6.1835,1.872 7.257,3.1328 0.1721,0.2033 0.1287,0.3662 0,0.4884 z m 4.7236,2.156 c 0,-1.1386 -0.0431,-2.4409 -0.0861,-3.6615 -0.0426,-0.6508 -0.2577,-0.8132 -0.6869,-0.8132 h -1.8896 c -0.2576,0 -0.4291,-0.0817 -0.4291,-0.326 v -0.773 c 0,-0.3254 0.1287,-0.4068 0.3435,-0.4068 0.5148,0 2.1473,0.1222 4.6375,0.1222 2.8772,0 4.8524,-0.1222 5.1959,-0.1222 0.2577,0 0.3433,0.163 0.3433,0.4068 v 0.8138 c 0,0.2035 -0.0856,0.2852 -0.4292,0.2852 h -1.7175 c -0.4294,0 -0.6009,0.3254 -0.6874,1.0576 -0.0856,0.4881 -0.0856,1.9525 -0.0856,3.4988 v 4.3937 c 0,3.3769 0,5.9805 0.0856,6.6313 0.0431,0.3257 -0.0856,0.4885 -0.3435,0.4885 -0.2577,0 -0.6013,-0.0811 -1.0304,-0.2441 -0.73,-0.2846 -4.9814,-1.7085 -5.582,-1.9528 -0.2152,-0.0816 -0.3011,-0.1627 -0.3011,-0.3254 v -0.4476 c 0,-0.1627 0.0431,-0.2849 0.4292,-0.3662 1.976,-0.4885 2.2334,-1.3017 2.2334,-2.5223 z m 4.2509,18.2265 c 0,0.936 -0.8156,2.1158 -2.5334,2.1158 -1.7175,0 -2.8771,-1.0984 -2.8771,-2.2782 0,-1.3833 1.2883,-2.2785 2.6195,-2.2785 1.9323,0 2.791,1.2614 2.791,2.4409 z m 15.0729,-22.0912 c 0.6012,-1.7493 1.9752,-2.482 3.6068,-2.482 2.4905,0 3.5209,1.6276 3.9507,2.3598 0.1715,0.4071 0.0858,0.5698 -0.0859,0.6508 l -0.5151,0.3255 c -0.1721,0.0816 -0.2579,0.0816 -0.4294,-0.1625 -0.1718,-0.3254 -0.773,-0.6508 -1.3743,-0.6508 -0.7727,0 -1.1163,0.6508 -1.1163,2.8477 v 1.9531 l -0.0864,6.4281 c 0,1.0984 -0.0856,2.2376 -1.0304,3.0509 -0.773,0.6508 -1.5457,1.1393 -3.9504,1.1393 -2.8343,0 -5.1528,-0.9763 -6.9565,-2.2785 -1.2883,-0.8947 -1.9752,-2.1969 -1.9752,-3.3361 0,-0.8946 0.6869,-1.3831 1.4596,-1.3831 1.8037,0 2.5767,0.8952 2.5767,2.3599 0,0.9762 -0.4295,1.5863 0.1718,1.9933 0.6868,0.4881 1.7178,0.7322 2.4905,0.7322 0.9448,0 1.7178,-0.1624 2.147,-0.61 0.5156,-0.4884 0.6012,-1.4647 0.6874,-2.2785 v -2.1155 c -0.9448,-0.6508 -2.5765,-1.302 -5.2393,-2.5223 -3.0912,-1.3019 -3.9501,-3.1328 -3.9501,-5.0043 0,-2.2784 1.3737,-3.499 2.9628,-3.499 0.8586,0 1.7606,0 2.7482,0.2851 1.6744,0.5287 2.791,1.2203 3.7357,2.1969 z m -0.4294,1.7087 c 0,-0.7325 -1.5461,-1.8714 -2.7485,-1.9531 -1.0304,0 -1.9752,0.8139 -1.9752,2.482 0,2.9699 2.8341,3.6616 4.7237,4.8008 z m 24.7773,0 c -0.1292,0.1222 -0.301,0.1222 -0.3869,0.0405 -1.1591,-0.8543 -2.4908,-1.546 -4.6372,-1.546 -1.3745,0 -3.2641,0.4071 -4.4235,2.1969 -1.5885,2.482 -1.6747,4.1499 -1.6747,6.5911 0,2.8885 2.1473,4.7194 3.8651,4.7194 1.1162,0 2.061,-0.2849 2.6623,-1.6679 0.4291,-1.0582 1.1165,-2.0344 2.5764,-2.0344 1.2024,0 1.8893,0.8138 1.8893,1.79 0,1.2206 -1.1163,3.6616 -6.0974,3.6616 -2.4049,0 -4.4662,-0.8139 -6.2696,-2.3596 -2.1467,-1.8714 -3.178,-4.7194 -3.178,-7.2825 0,-2.0341 0.4301,-3.6615 2.0617,-5.6146 1.6316,-1.9525 3.9506,-2.6852 6.8703,-2.6852 3.1776,0 6.1835,1.872 7.257,3.1328 0.172,0.2033 0.129,0.3662 0,0.4884 z m 4.7231,2.156 c 0,-1.1386 -0.0425,-2.4409 -0.0856,-3.6615 -0.0431,-0.6508 -0.258,-0.8132 -0.6874,-0.8132 h -1.8893 c -0.258,0 -0.4292,-0.0817 -0.4292,-0.326 v -0.773 c 0,-0.3254 0.1287,-0.4068 0.3433,-0.4068 0.5153,0 2.1473,0.1222 4.6378,0.1222 2.8771,0 4.852,-0.1222 5.1959,-0.1222 0.2574,0 0.3435,0.163 0.3435,0.4068 v 0.8138 c 0,0.2035 -0.0861,0.2852 -0.4294,0.2852 h -1.7178 c -0.4295,0 -0.601,0.3254 -0.6868,1.0576 -0.0862,0.4881 -0.0862,1.9525 -0.0862,3.4988 v 4.3937 c 0,3.3769 0,5.9805 0.0862,6.6313 0.0428,0.3257 -0.0862,0.4885 -0.3439,0.4885 -0.2574,0 -0.6009,-0.0811 -1.0304,-0.2441 -0.7299,-0.2846 -4.9813,-1.7085 -5.5822,-1.9528 -0.2149,-0.0816 -0.3008,-0.1627 -0.3008,-0.3254 v -0.4476 c 0,-0.1627 0.0428,-0.2849 0.4294,-0.3662 1.9755,-0.4885 2.2329,-1.3017 2.2329,-2.5223 z m 4.2511,18.2265 c 0,0.936 -0.8158,2.1158 -2.5333,2.1158 -1.7178,0 -2.8772,-1.0984 -2.8772,-2.2782 0,-1.3833 1.2881,-2.2785 2.6198,-2.2785 1.9324,0 2.7907,1.2614 2.7907,2.4409 z m 14.6432,-6.6313 c -1.7603,0 -3.9931,-0.3255 -6.0973,-1.9526 -2.5764,-1.953 -3.6076,-4.801 -3.6076,-6.7538 0,-2.4817 0.43,-4.1904 2.3193,-6.3059 1.9321,-2.1969 4.2508,-2.9296 6.9562,-2.9296 2.8771,0 5.4538,1.0581 7.2142,2.9296 1.6316,1.7087 2.6623,3.9055 2.6623,6.1837 0,2.4007 -0.9446,4.5162 -2.9631,6.4285 -1.4596,1.3424 -3.6068,2.4001 -6.484,2.4001 z M 234.6968,119.56 c -1.7173,0 -2.6621,0.6508 -3.3923,1.7492 -1.1591,1.7499 -1.3308,3.2956 -1.3308,5.6551 0,2.9702 0.515,4.6786 1.8465,6.103 0.7299,0.773 1.5885,1.0985 2.7053,1.0985 1.9752,0 4.4657,-2.6039 4.4657,-7.0793 0,-4.1496 -1.4601,-7.5265 -4.2944,-7.5265 z m -1.3309,18.5519 c 0.0859,-0.0814 0.2577,-0.0814 0.3435,0 l 5.4967,3.5801 c 1.8034,1.1798 0.8586,3.4175 -0.7733,3.3361 -0.8589,0.0408 -1.5457,-0.5286 -2.1044,-1.3016 l -3.4778,-4.8822 c -0.0859,-0.0816 -0.0859,-0.244 0,-0.3257 z m 14.0845,-4.76 c -0.258,-0.0813 -0.4292,-0.2443 -0.4292,-0.4067 v -0.3255 c 0,-0.1629 0.0856,-0.3257 0.3433,-0.407 l 0.3436,-0.1627 c 1.0304,-0.4881 1.8036,-1.1393 1.8036,-2.3596 v -9.1542 c 0,-0.6508 -0.6012,-0.8132 -1.1168,-0.8132 h -0.8586 c -0.3439,0 -0.4295,-0.0817 -0.4295,-0.326 v -0.773 c 0,-0.2438 0.0856,-0.4068 0.2577,-0.4068 0.258,0 1.6319,0.1222 4.2942,0.1222 2.5764,0 3.7789,-0.1222 4.0365,-0.1222 0.2574,0 0.3436,0.163 0.3436,0.4068 v 0.7324 c 0,0.2849 -0.0862,0.3666 -0.4294,0.3666 h -0.7731 c -0.6012,0 -0.816,0.4878 -0.816,1.383 v 8.3809 c 0,1.0984 0.2148,2.2377 0.9019,2.8888 1.0304,0.8949 2.0614,1.0576 2.7482,1.0576 0.9448,0 1.7178,0 2.5764,-0.7322 1.0304,-0.8138 1.1169,-1.8714 1.1169,-3.4991 v -4.6789 c 0,-1.627 -0.0431,-2.7663 -0.1721,-3.8239 -0.0859,-0.7325 -0.4291,-0.9762 -0.7727,-0.9762 H 259.56 c -0.4292,0 -0.5156,-0.0817 -0.5156,-0.326 v -0.6914 c 0,-0.3254 0.0864,-0.4884 0.3438,-0.4884 0.2574,0 1.6319,0.1222 4.2083,0.1222 3.0059,0 4.294,-0.1222 4.6375,-0.1222 0.258,0 0.3436,0.0814 0.3436,0.2852 v 0.9354 c 0,0.2035 -0.1293,0.2852 -0.5154,0.2852 h -1.2024 c -0.5151,0 -1.0304,0.2437 -1.0304,1.1386 0,0.8139 0.0428,2.6039 0.0428,3.9059 v 5.8584 c 0,1.6681 -0.4723,2.8885 -2.3618,4.1907 -0.9445,0.7322 -2.3188,0.9763 -3.7789,0.9763 -1.2881,0 -2.4046,-0.4068 -3.4353,-0.9763 -0.8586,-0.4071 -1.6316,-1.0579 -2.1467,-1.6277 h -0.2579 l -0.3436,2.1155 c -0.0859,0.3257 -0.2577,0.4885 -0.5151,0.4885 -0.2576,0 -0.5156,-0.1628 -0.8591,-0.3255 z m 41.4811,-2.1563 c 0.4725,0.0406 1.2024,0.0814 1.3745,0.0814 1.8031,0 2.7907,-1.0987 3.8645,-2.5226 0.6871,-0.8952 1.8895,-2.7663 2.3187,-3.4985 0.3866,-0.6511 2.0614,-3.5804 2.8341,-4.7197 0.5581,-0.8541 1.3742,-1.9525 1.8898,-2.319 0.9445,0.0408 2.5762,0.1222 3.7789,0.1222 2.7476,0 3.8645,-0.1222 4.208,-0.1222 0.2577,0 0.3433,0.1222 0.3433,0.4068 v 0.8546 c 0,0.1627 -0.0856,0.2846 -0.3433,0.2846 -1.0306,0 -2.2331,0.0814 -3.0489,0.773 -0.6443,0.5698 -3.3925,4.2313 -3.6499,4.6384 -0.3436,0.4878 -3.0061,4.3123 -3.5215,4.9631 -0.6012,0.7322 -1.3739,1.465 -2.5764,1.8715 v 0.163 c 4.7237,0.7321 7.9875,2.8476 7.9875,7.9741 0,1.5457 -0.7736,3.2547 -2.3191,4.5564 -1.7177,1.4647 -4.38,2.5631 -7.8156,2.5631 -1.2881,0 -5.2387,-0.1219 -7.6434,-0.1219 -4.2083,0 -5.5822,0.1219 -5.883,0.1219 -0.2146,0 -0.3005,-0.0811 -0.3005,-0.2849 v -1.0984 c 0,-0.1624 0.0859,-0.2441 0.3005,-0.2441 h 1.6747 c 0.7733,0 1.3742,-0.6511 1.3742,-2.0341 v -10.7 c 0,-3.8245 0,-7.6484 -0.0861,-11.7172 0,-1.0985 -0.6869,-1.3425 -1.6316,-1.3425 h -1.4599 c -0.1718,0 -0.2574,-0.1216 -0.2574,-0.3255 v -0.9354 c 0,-0.2443 0.0856,-0.3665 0.3436,-0.3665 0.4291,0 1.4595,0.1222 5.6679,0.1222 4.4657,0 5.3248,-0.1222 5.883,-0.1222 0.3435,0 0.4722,0.0814 0.4722,0.3665 v 0.9763 c 0,0.163 -0.0859,0.2846 -0.3435,0.2846 h -2.147 c -0.6871,0 -0.9876,0.7324 -1.1163,1.5463 -0.0861,0.61 -0.172,5.1667 -0.172,7.6076 z m 0.172,13.1817 c 0,0.4881 0.1718,0.9765 0.5151,1.1798 0.3435,0.2032 0.8586,0.244 1.5457,0.244 2.1473,0 4.1222,-0.4473 5.6682,-1.7492 1.0737,-0.9357 1.8898,-2.6853 1.8898,-4.5567 0,-1.8715 -1.3742,-6.9976 -8.0728,-6.9976 -0.5156,0 -1.0309,0.0813 -1.6321,0.1627 z m 25.6357,-15.745 h 10.3918 c 0.773,0 1.2022,0.0408 1.2022,0.6514 0,1.6679 -1.5888,6.5092 -6.484,6.5092 -3.7358,0 -5.6684,-0.8139 -7.4721,-3.0107 -1.8465,-2.2779 -2.1039,-3.7837 -2.1039,-6.0214 0,-2.5222 0.4298,-4.5564 2.4047,-6.7124 1.5029,-1.6277 3.4355,-2.1974 6.1835,-2.1974 4.7236,0 6.9134,2.7669 7.8151,4.3129 0.301,0.5289 0.2151,0.6913 0,0.8135 l -0.6438,0.3663 c -0.1718,0.081 -0.3435,0.081 -0.5156,-0.2036 -0.9014,-1.3016 -2.5333,-2.3595 -5.1953,-2.3595 -2.4478,0 -5.5826,2.4409 -5.5826,6.5908 z m 0.1287,1.4646 c 0.5581,2.7261 1.8462,4.1908 3.9504,4.1908 2.2331,0 2.6628,-2.4004 2.6628,-3.621 0,-0.3254 -0.5156,-0.5698 -1.4173,-0.5698 z m 28.3411,-5.5738 c 0,-1.3016 0,-3.4171 -0.0859,-3.9869 -0.0856,-0.6508 -0.6868,-0.8132 -1.2025,-0.8132 h -0.7296 c -0.2149,0 -0.3008,-0.0817 -0.3008,-0.2444 v -0.9762 c 0,-0.2038 0.0859,-0.2852 0.3436,-0.2852 0.4294,0 1.9752,0.1222 4.5516,0.1222 2.6195,0 3.9934,-0.1222 4.2514,-0.1222 0.2577,0 0.3433,0.1222 0.3433,0.3257 v 0.8949 c 0,0.2035 -0.0856,0.2852 -0.4292,0.2852 h -0.773 c -0.6871,0 -1.4599,0.081 -1.4599,0.6508 v 5.3699 2.4412 c 0,2.3194 0.0857,4.3532 -1.8892,5.9809 -1.2887,1.0576 -2.4047,1.6271 -4.2942,1.6271 -2.0186,0 -4.3371,-0.8949 -5.5395,-2.4818 h -0.258 v 2.5226 c 0,1.9936 0,10.2118 0.0859,10.944 0.0862,0.6508 0,0.9762 -0.3435,0.9762 -0.4292,0 -0.6869,-0.1624 -1.2019,-0.3254 -1.3745,-0.6508 -4.2942,-2.0339 -5.5826,-2.3596 -0.515,-0.244 -0.6012,-0.3257 -0.6012,-0.4881 v -0.4068 c 0,-0.1629 0.0862,-0.2443 0.3436,-0.3254 l 0.773,-0.2443 c 1.4598,-0.5695 1.9754,-1.3833 1.9754,-3.6615 l 0.0856,-14.5245 c 0,-1.8714 -0.0425,-4.2312 -0.2148,-5.0445 -0.1287,-0.4884 -0.73,-0.6508 -1.4168,-0.6508 h -1.0738 c -0.2145,0 -0.386,-0.0817 -0.386,-0.2852 v -0.8949 c 0,-0.2443 0.1281,-0.3257 0.3432,-0.3257 0.3436,0 1.9752,0.1222 4.6375,0.1222 2.2332,0 4.1224,-0.1222 4.466,-0.1222 0.2577,0 0.3433,0.163 0.3433,0.4068 v 0.7324 c 0,0.2849 -0.1712,0.3666 -0.4289,0.3666 h -1.0304 c -0.6015,0 -0.7736,0.4064 -0.7736,1.7084 v 8.7877 c 0,0.773 0.4298,1.5868 0.7736,1.9936 0.9442,0.8949 2.0608,1.4647 3.1771,1.4647 1.0307,0 1.7178,-0.3255 2.4049,-0.9763 1.1163,-1.0582 1.1163,-3.3361 1.1163,-5.4519 z m 19.2381,-4.1901 c 0.6013,-1.7493 1.9749,-2.482 3.6066,-2.482 2.4908,0 3.5214,1.6276 3.9506,2.3598 0.1721,0.4071 0.0862,0.5698 -0.0856,0.6508 l -0.5153,0.3255 c -0.1715,0.0816 -0.2577,0.0816 -0.4295,-0.1625 -0.1718,-0.3254 -0.773,-0.6508 -1.3742,-0.6508 -0.7725,0 -1.116,0.6508 -1.116,2.8477 v 1.9531 l -0.0862,6.4281 c 0,1.0984 -0.0859,2.2376 -1.0307,3.0509 -0.7727,0.6508 -1.546,1.1393 -3.95,1.1393 -2.8344,0 -5.1531,-0.9763 -6.9571,-2.2785 -1.2881,-0.8947 -1.9749,-2.1969 -1.9749,-3.3361 0,-0.8946 0.6868,-1.3831 1.4598,-1.3831 1.8034,0 2.5764,0.8952 2.5764,2.3599 0,0.9762 -0.4291,1.5863 0.1718,1.9933 0.6871,0.4881 1.7175,0.7322 2.4905,0.7322 0.9451,0 1.7178,-0.1624 2.147,-0.61 0.5153,-0.4884 0.6012,-1.4647 0.6877,-2.2785 v -2.1155 c -0.9448,-0.6508 -2.577,-1.302 -5.2393,-2.5223 -3.0915,-1.3019 -3.9506,-3.1328 -3.9506,-5.0043 0,-2.2784 1.3739,-3.499 2.9633,-3.499 0.8583,0 1.7603,0 2.7476,0.2851 1.675,0.5287 2.7913,1.2203 3.7358,2.1969 z m -0.4291,1.7087 c 0,-0.7325 -1.546,-1.8714 -2.7485,-1.9531 -1.0309,0 -1.9755,0.8139 -1.9755,2.482 0,2.9699 2.8344,3.6616 4.724,4.8008 z m 13.9124,-3.1326 c 1.2025,-0.5697 2.9203,-1.0581 5.4967,-1.0581 5.239,0 9.447,4.9637 9.447,9.4388 0,2.2376 -0.4722,3.9464 -1.2455,5.0859 -1.3309,1.9933 -3.6068,3.4172 -6.2691,3.4172 -2.1904,0 -4.4229,-0.7322 -5.8831,-2.0747 l 0.0431,4.8821 c 0.0425,3.5393 0.2146,8.1774 0.2146,8.5028 0.0859,0.407 -0.0859,0.6508 -0.4294,0.6508 -0.3439,0 -0.6874,-0.1624 -1.2887,-0.4881 -1.3736,-0.6508 -3.8644,-1.7087 -5.5817,-2.2785 -0.3438,-0.0811 -0.4294,-0.2441 -0.4294,-0.3254 v -0.4065 c 0,-0.163 0.0856,-0.2443 0.6012,-0.3257 l 0.5151,-0.1627 c 1.3739,-0.4068 1.8465,-0.8952 1.8465,-3.6615 l 0.0858,-14.8496 c 0,-2.9296 -0.0428,-6.3468 -0.1286,-6.9165 0,-0.163 0,-0.2441 0.1714,-0.3254 l 0.6013,-0.163 c 0.172,0 0.3435,0 0.5581,0.1221 z m 1.546,13.2222 c 0.9448,0.8139 2.1473,1.2206 3.3495,1.2206 3.3922,0 5.4532,-2.6444 5.4532,-7.3638 0,-1.7904 -0.2142,-3.092 -1.1162,-4.5567 -0.9873,-1.5868 -2.5334,-2.075 -3.9076,-2.075 -1.4598,0 -2.6626,0.8544 -3.1776,1.8307 -0.5157,1.2206 -0.6013,2.5228 -0.6013,5.9402 z m 18.5936,-7.9336 c 0,-1.1386 -0.0428,-2.4409 -0.0859,-3.6615 -0.0428,-0.6508 -0.2576,-0.8132 -0.6871,-0.8132 h -1.8896 c -0.2576,0 -0.4291,-0.0817 -0.4291,-0.326 v -0.773 c 0,-0.3254 0.1287,-0.4068 0.3435,-0.4068 0.5151,0 2.1473,0.1222 4.6375,0.1222 2.8772,0 4.8524,-0.1222 5.1962,-0.1222 0.2574,0 0.3433,0.163 0.3433,0.4068 v 0.8138 c 0,0.2035 -0.0859,0.2852 -0.4295,0.2852 h -1.7175 c -0.4297,0 -0.6009,0.3254 -0.6871,1.0576 -0.0859,0.4881 -0.0859,1.9525 -0.0859,3.4988 v 4.3937 c 0,3.3769 0,5.9805 0.0859,6.6313 0.0431,0.3257 -0.0859,0.4885 -0.3438,0.4885 -0.2574,0 -0.6013,-0.0811 -1.0304,-0.2441 -0.73,-0.2846 -4.9814,-1.7085 -5.5823,-1.9528 -0.2146,-0.0816 -0.3008,-0.1627 -0.3008,-0.3254 v -0.4476 c 0,-0.1627 0.0431,-0.2849 0.4295,-0.3662 1.9754,-0.4885 2.2331,-1.3017 2.2331,-2.5223 z m 4.2509,18.2265 c 0,0.936 -0.8156,2.1158 -2.5334,2.1158 -1.7175,0 -2.8771,-1.0984 -2.8771,-2.2782 0,-1.3833 1.2883,-2.2785 2.6195,-2.2785 1.9326,0 2.791,1.2614 2.791,2.4409 z m 7.1285,-10.0893 v -11.1478 c 0,-1.1387 -0.6443,-1.4641 -1.0732,-1.4641 h -1.6319 c -0.5153,0 -0.6012,-0.0817 -0.6012,-0.326 v -0.773 c 0,-0.2438 0.0859,-0.4068 0.3435,-0.4068 0.3436,0 2.0608,0.1222 5.3246,0.1222 3.0062,0 4.8955,-0.1222 5.239,-0.1222 0.1715,0 0.2577,0.163 0.2577,0.4068 v 0.7324 c 0,0.2849 -0.0862,0.3666 -0.5153,0.3666 h -1.6317 c -0.9447,0 -1.0309,0.5692 -1.1168,1.3016 -0.0859,1.2206 -0.0859,5.3705 -0.0859,7.242 v 5.8583 c 0,2.2377 0.0859,10.7 0.1718,12.8968 0,0.5698 -0.1718,0.7322 -0.4295,0.7322 -0.1717,0 -0.4291,-0.0813 -0.9448,-0.2438 -1.3742,-0.8138 -4.723,-1.8717 -6.4411,-2.3598 -0.2574,-0.0814 -0.3436,-0.2441 -0.3436,-0.3254 v -0.4884 c 0,-0.1625 0,-0.2441 0.258,-0.3254 l 0.8589,-0.2441 c 1.3739,-0.4068 2.1038,-1.0576 2.1897,-2.4412 0.0859,-1.0576 0.1718,-4.5564 0.1718,-7.4044 z m 11.4225,-8.1372 c 0,-1.1386 -0.0428,-2.4409 -0.0859,-3.6615 -0.0425,-0.6508 -0.2577,-0.8132 -0.6871,-0.8132 h -1.8896 c -0.2574,0 -0.4291,-0.0817 -0.4291,-0.326 v -0.773 c 0,-0.3254 0.1287,-0.4068 0.3435,-0.4068 0.5151,0 2.1473,0.1222 4.6375,0.1222 2.8772,0 4.8526,-0.1222 5.1962,-0.1222 0.2577,0 0.3433,0.163 0.3433,0.4068 v 0.8138 c 0,0.2035 -0.0856,0.2852 -0.4295,0.2852 h -1.7175 c -0.4292,0 -0.6009,0.3254 -0.6871,1.0576 -0.0859,0.4881 -0.0859,1.9525 -0.0859,3.4988 v 4.3937 c 0,3.3769 0,5.9805 0.0859,6.6313 0.0431,0.3257 -0.0859,0.4885 -0.3436,0.4885 -0.2576,0 -0.6012,-0.0811 -1.0307,-0.2441 -0.7299,-0.2846 -4.9813,-1.7085 -5.5822,-1.9528 -0.2146,-0.0816 -0.3008,-0.1627 -0.3008,-0.3254 v -0.4476 c 0,-0.1627 0.0434,-0.2849 0.4295,-0.3662 1.9754,-0.4885 2.2331,-1.3017 2.2331,-2.5223 z m 4.2511,18.2265 c 0,0.936 -0.8158,2.1158 -2.5336,2.1158 -1.7175,0 -2.8771,-1.0984 -2.8771,-2.2782 0,-1.3833 1.2883,-2.2785 2.6197,-2.2785 1.9324,0 2.791,1.2614 2.791,2.4409 z m 7.3432,-9.3977 v -5.2687 c 0,-1.5458 -0.1287,-4.794 -0.1287,-6.2518 0,-1.702 1.9321,-3.655 4.5085,-3.655 3.0061,0 4.8095,1.2206 5.4108,1.6276 0.1717,0.1627 0.2573,0.3254 0.1717,0.5698 l -0.2579,0.4813 c -0.0856,0.2032 -0.2143,0.2032 -0.5151,0.0814 -0.6009,-0.2781 -1.5457,-0.4817 -2.4902,-0.4817 -0.8592,0 -2.2765,0.6444 -2.2765,3.8109 v 3.6548 c 0,1.7835 0.0431,3.7295 0.1292,5.4314 h 5.1957 c 0.2579,0 0.3866,0.0811 0.4294,0.2441 l 0.4292,1.7084 c 0.0431,0.163 -0.0425,0.3254 -0.3005,0.3254 h -5.6681 l 0.172,4.0281 c 0,0.3254 -0.172,0.5695 -0.5156,0.5695 -0.2577,0 -0.5151,-0.0814 -0.6868,-0.4068 -0.9448,-1.7087 -4.6806,-4.7194 -5.8831,-5.1262 -0.5581,-0.2032 -0.8161,-0.4476 -0.8161,-0.773 0,-0.4071 0.258,-0.5695 0.6013,-0.5695 z m 21.9432,-12.6935 c 0.6007,-1.7493 1.9749,-2.482 3.6066,-2.482 2.4908,0 3.5212,1.6276 3.9506,2.3598 0.1718,0.4071 0.0862,0.5698 -0.0859,0.6508 l -0.515,0.3255 c -0.1721,0.0816 -0.2577,0.0816 -0.4298,-0.1625 -0.1715,-0.3254 -0.7727,-0.6508 -1.3739,-0.6508 -0.7725,0 -1.116,0.6508 -1.116,2.8477 v 1.9531 l -0.0865,6.4281 c 0,1.0984 -0.0856,2.2376 -1.0304,3.0509 -0.773,0.6508 -1.546,1.1393 -3.9506,1.1393 -2.8341,0 -5.1525,-0.9763 -6.9565,-2.2785 -1.2881,-0.8947 -1.9749,-2.1969 -1.9749,-3.3361 0,-0.8946 0.6868,-1.3831 1.4595,-1.3831 1.8037,0 2.5767,0.8952 2.5767,2.3599 0,0.9762 -0.4297,1.5863 0.1718,1.9933 0.6869,0.4881 1.7175,0.7322 2.4905,0.7322 0.9448,0 1.7178,-0.1624 2.147,-0.61 0.5153,-0.4884 0.6012,-1.4647 0.6871,-2.2785 v -2.1155 c -0.9445,-0.6508 -2.5761,-1.302 -5.239,-2.5223 -3.0917,-1.3019 -3.9503,-3.1328 -3.9503,-5.0043 0,-2.2784 1.3739,-3.499 2.963,-3.499 0.8586,0 1.7606,0 2.7479,0.2851 1.6747,0.5287 2.7913,1.2203 3.7358,2.1969 z m -0.4297,1.7087 c 0,-0.7325 -1.5457,-1.8714 -2.7485,-1.9531 -1.0303,0 -1.9749,0.8139 -1.9749,2.482 0,2.9699 2.8341,3.6616 4.7234,4.8008 z m 24.7774,0 c -0.129,0.1222 -0.3008,0.1222 -0.3867,0.0405 -1.1593,-0.8543 -2.4908,-1.546 -4.6372,-1.546 -1.3748,0 -3.2641,0.4071 -4.4234,2.1969 -1.5889,2.482 -1.6747,4.1499 -1.6747,6.5911 0,2.8885 2.1472,4.7194 3.8647,4.7194 1.1166,0 2.0614,-0.2849 2.6626,-1.6679 0.4292,-1.0582 1.116,-2.0344 2.5761,-2.0344 1.2028,0 1.8896,0.8138 1.8896,1.79 0,1.2206 -1.1166,3.6616 -6.0973,3.6616 -2.4052,0 -4.4663,-0.8139 -6.2697,-2.3596 -2.147,-1.8714 -3.1779,-4.7194 -3.1779,-7.2825 0,-2.0341 0.4297,-3.6615 2.0613,-5.6146 1.6319,-1.9525 3.9507,-2.6852 6.8706,-2.6852 3.1777,0 6.1835,1.872 7.257,3.1328 0.1721,0.2033 0.129,0.3662 0,0.4884 z m 4.7233,2.156 c 0,-1.1386 -0.0428,-2.4409 -0.0858,-3.6615 -0.0429,-0.6508 -0.2577,-0.8132 -0.6872,-0.8132 h -1.8895 c -0.2577,0 -0.4292,-0.0817 -0.4292,-0.326 v -0.773 c 0,-0.3254 0.1287,-0.4068 0.3436,-0.4068 0.5153,0 2.1472,0.1222 4.6374,0.1222 2.8772,0 4.8524,-0.1222 5.1962,-0.1222 0.2574,0 0.3436,0.163 0.3436,0.4068 v 0.8138 c 0,0.2035 -0.0862,0.2852 -0.4298,0.2852 h -1.7175 c -0.4297,0 -0.6009,0.3254 -0.6871,1.0576 -0.0859,0.4881 -0.0859,1.9525 -0.0859,3.4988 v 4.3937 c 0,3.3769 0,5.9805 0.0859,6.6313 0.0431,0.3257 -0.0859,0.4885 -0.3438,0.4885 -0.2574,0 -0.6013,-0.0811 -1.0304,-0.2441 -0.7299,-0.2846 -4.9813,-1.7085 -5.582,-1.9528 -0.2149,-0.0816 -0.301,-0.1627 -0.301,-0.3254 v -0.4476 c 0,-0.1627 0.043,-0.2849 0.4297,-0.3662 1.9755,-0.4885 2.2328,-1.3017 2.2328,-2.5223 z m 4.2509,18.2265 c 0,0.936 -0.8156,2.1158 -2.5333,2.1158 -1.7176,0 -2.8772,-1.0984 -2.8772,-2.2782 0,-1.3833 1.2883,-2.2785 2.6195,-2.2785 1.9329,0 2.791,1.2614 2.791,2.4409 z m 14.6435,-6.6313 c -1.7606,0 -3.9935,-0.3255 -6.0976,-1.9526 -2.5764,-1.953 -3.6074,-4.801 -3.6074,-6.7538 0,-2.4817 0.4297,-4.1904 2.3193,-6.3059 1.9321,-2.1969 4.2506,-2.9296 6.9559,-2.9296 2.8772,0 5.4542,1.0581 7.2145,2.9296 1.6316,1.7087 2.6623,3.9055 2.6623,6.1837 0,2.4007 -0.9448,4.5162 -2.9633,6.4285 -1.4593,1.3424 -3.6066,2.4001 -6.4837,2.4001 z M 500.2886,119.56 c -1.7172,0 -2.662,0.6508 -3.3922,1.7492 -1.1594,1.7499 -1.3309,3.2956 -1.3309,5.6551 0,2.9702 0.5151,4.6786 1.8462,6.103 0.7299,0.773 1.5888,1.0985 2.7057,1.0985 1.9749,0 4.4657,-2.6039 4.4657,-7.0793 0,-4.1496 -1.4604,-7.5265 -4.2945,-7.5265 z m -1.3309,18.5519 c 0.0856,-0.0814 0.2574,-0.0814 0.3436,0 l 5.4964,3.5801 c 1.8034,1.1798 0.8589,3.4175 -0.7733,3.3361 -0.8586,0.0408 -1.5455,-0.5286 -2.1042,-1.3016 l -3.4781,-4.8822 c -0.0856,-0.0816 -0.0856,-0.244 0,-0.3257 z m 14.0843,-4.76 c -0.2577,-0.0813 -0.4292,-0.2443 -0.4292,-0.4067 v -0.3255 c 0,-0.1629 0.0859,-0.3257 0.3435,-0.407 l 0.3436,-0.1627 c 1.0304,-0.4881 1.8037,-1.1393 1.8037,-2.3596 v -9.1542 c 0,-0.6508 -0.6012,-0.8132 -1.1169,-0.8132 h -0.8586 c -0.3438,0 -0.4294,-0.0817 -0.4294,-0.326 v -0.773 c 0,-0.2438 0.0856,-0.4068 0.2576,-0.4068 0.258,0 1.6317,0.1222 4.2943,0.1222 2.5761,0 3.7788,-0.1222 4.0362,-0.1222 0.2577,0 0.3438,0.163 0.3438,0.4068 v 0.7324 c 0,0.2849 -0.0861,0.3666 -0.4297,0.3666 h -0.7727 c -0.6015,0 -0.8161,0.4878 -0.8161,1.383 v 8.3809 c 0,1.0984 0.2146,2.2377 0.902,2.8888 1.0304,0.8949 2.061,1.0576 2.7482,1.0576 0.9448,0 1.7175,0 2.5764,-0.7322 1.0304,-0.8138 1.1165,-1.8714 1.1165,-3.4991 v -4.6789 c 0,-1.627 -0.0428,-2.7663 -0.172,-3.8239 -0.0856,-0.7325 -0.4292,-0.9762 -0.7725,-0.9762 h -0.8591 c -0.4292,0 -0.5157,-0.0817 -0.5157,-0.326 v -0.6914 c 0,-0.3254 0.0865,-0.4884 0.3439,-0.4884 0.2576,0 1.6322,0.1222 4.2086,0.1222 3.0053,0 4.2939,-0.1222 4.6375,-0.1222 0.2576,0 0.3432,0.0814 0.3432,0.2852 v 0.9354 c 0,0.2035 -0.1289,0.2852 -0.515,0.2852 h -1.2025 c -0.5153,0 -1.0304,0.2437 -1.0304,1.1386 0,0.8139 0.0425,2.6039 0.0425,3.9059 v 5.8584 c 0,1.6681 -0.4719,2.8885 -2.3615,4.1907 -0.9451,0.7322 -2.319,0.9763 -3.7789,0.9763 -1.288,0 -2.4046,-0.4068 -3.4353,-0.9763 -0.8586,-0.4071 -1.6316,-1.0579 -2.1469,-1.6277 h -0.2577 l -0.3436,2.1155 c -0.0858,0.3257 -0.2576,0.4885 -0.515,0.4885 -0.258,0 -0.5156,-0.1628 -0.8592,-0.3255 z m 38.046,8.3401 h 0.258 c 0.515,-0.5694 7.3859,-8.7063 7.9871,-9.2761 0.5148,-0.6508 3.8645,-4.475 6.8704,-7.9738 2.662,-3.0107 4.9807,-5.533 5.3248,-5.9397 0.3436,-0.326 0.8584,-0.6514 1.4596,-0.6514 0.5156,0 0.5156,0.5697 0.5156,1.1392 v 10.741 c 0,4.1494 0.4292,10.9846 0.6438,13.7512 0.1287,1.5049 0.5584,2.156 1.4173,2.156 h 1.2022 c 0.1718,0 0.2576,0.1627 0.2576,0.4071 v 0.9354 c 0,0.1222 -0.0858,0.2849 -0.4294,0.2849 -0.5151,0 -1.5455,-0.1219 -4.1219,-0.1219 -2.9205,0 -4.2945,0.1219 -4.8098,0.1219 -0.3436,0 -0.3436,-0.0811 -0.3436,-0.3254 v -0.9357 c 0,-0.2036 0,-0.3663 0.2577,-0.3663 h 1.3743 c 1.0306,0 1.9754,-0.5695 2.2759,-1.546 0.2143,-0.6914 0.3864,-4.6789 0.4722,-6.2246 0.0856,-2.0341 0.0856,-4.0683 0.0856,-7.6487 v -4.231 h -0.1714 c -0.6869,0.8135 -7.386,8.7063 -7.9872,9.3572 -0.8586,1.1392 -9.275,11.1478 -9.7044,11.5543 -0.258,0.2443 -0.5157,0.3662 -1.031,0.3662 -0.2574,0 -0.6437,-0.0408 -1.2022,-0.0408 -0.5153,-0.0403 -1.1593,-0.0811 -1.8893,-0.0811 -1.8895,0 -3.0489,0 -3.8219,0.0408 -0.773,0.0403 -1.1163,0.0811 -1.3312,0.0811 -0.1717,0 -0.2574,-0.0811 -0.2574,-0.2441 v -1.0984 c 0,-0.163 0.0857,-0.2441 0.2574,-0.2849 h 1.3743 c 1.8893,0 3.3494,-1.8714 3.3494,-4.3126 v -5.1667 c 0,-6.5095 -0.2574,-12.2054 -0.3005,-12.9376 -0.2149,-2.4818 -0.8161,-3.3769 -1.9329,-3.3769 h -1.4596 c -0.1721,0 -0.2577,-0.1625 -0.2577,-0.2438 v -1.0171 c 0,-0.2851 0.0856,-0.3665 0.2577,-0.3665 0.4292,0 3.3491,0.1222 4.466,0.1222 1.6316,0 4.2083,-0.1222 4.6375,-0.1222 0.3433,0 0.3433,0.0814 0.3433,0.3257 v 0.9357 c 0,0.2035 0,0.366 -0.3433,0.366 h -1.1166 c -1.546,0 -2.0611,0.9768 -2.1472,3.0106 -0.0856,1.2615 -0.4292,6.9571 -0.4292,13.8737 z m 32.8071,-13.0597 h 10.392 c 0.7728,0 1.2019,0.0408 1.2019,0.6514 0,1.6679 -1.5888,6.5092 -6.4836,6.5092 -3.7358,0 -5.6682,-0.8139 -7.4722,-3.0107 -1.8462,-2.2779 -2.1041,-3.7837 -2.1041,-6.0214 0,-2.5222 0.4297,-4.5564 2.4052,-6.7124 1.5029,-1.6277 3.4353,-2.1974 6.1835,-2.1974 4.7233,0 6.9134,2.7669 7.8151,4.3129 0.3007,0.5289 0.2146,0.6913 0,0.8135 l -0.644,0.3663 c -0.1721,0.081 -0.3439,0.081 -0.5157,-0.2036 -0.9017,-1.3016 -2.5333,-2.3595 -5.1956,-2.3595 -2.4477,0 -5.5825,2.4409 -5.5825,6.5908 z m 0.1289,1.4646 c 0.5579,2.7261 1.8465,4.1908 3.9504,4.1908 2.2331,0 2.6626,-2.4004 2.6626,-3.621 0,-0.3254 -0.5156,-0.5698 -1.4173,-0.5698 z m 27.9117,-11.7575 c 0.043,-0.3254 0.2576,-0.4884 0.6012,-0.4884 0.3435,0 0.6012,0.0816 0.8589,0.163 l 5.3246,1.4238 c 0.172,0.0408 0.2576,0.1222 0.2146,0.3662 l -0.1287,0.6509 c -0.0428,0.163 -0.1715,0.2035 -0.5151,0.163 -0.5156,-0.0817 -1.1168,-0.0817 -1.3742,-0.0817 -0.3436,0 -0.773,0.163 -0.9448,1.3836 -0.0859,0.8133 -0.0859,2.7663 -0.0859,4.7191 v 2.9294 c 0,4.0277 0.2577,5.0853 0.2577,5.4924 0,0.1627 -0.0862,0.4067 -0.3436,0.4067 -0.1715,0 -0.3433,-0.0408 -0.5581,-0.0813 -0.2149,-0.0408 -0.4295,-0.0817 -0.7302,-0.0817 h -5.3249 c -0.3861,0 -0.5148,-0.0402 -0.5148,-0.3254 v -0.7322 c 0,-0.1627 0.0856,-0.244 0.8589,-0.3254 1.0304,-0.0811 1.8462,-0.3254 1.8462,-1.3833 v -9.5607 c 0,-0.4881 -0.301,-1.0576 -0.4722,-1.3019 -0.6872,-0.8949 -1.9752,-1.5461 -3.0065,-1.5461 -0.9442,0 -1.889,-0.081 -2.7479,1.1393 -1.1591,1.7087 -0.8586,4.475 -0.8586,6.1027 v 2.5223 c 0,2.8074 0.1715,4.6788 0.1715,5.0853 0,0.2444 -0.1715,0.4884 -0.4294,0.4884 -0.1284,0 -0.3005,-0.0408 -0.4726,-0.0813 -0.1712,-0.0408 -0.3861,-0.0817 -0.6437,-0.0817 h -5.1528 c -0.4295,0 -0.5157,-0.081 -0.5157,-0.3254 v -0.7322 c 0,-0.244 0.258,-0.244 0.9448,-0.3254 0.7733,-0.0811 1.3743,-0.4473 1.503,-1.4646 0.0858,-0.4885 0.0858,-1.9525 0.0858,-2.9294 0,-0.8543 -0.0428,-2.2376 -0.0428,-4.1904 0,-2.2779 0.0428,-3.7837 1.5886,-5.6957 1.5032,-1.7903 2.8771,-1.7903 4.4232,-1.7903 2.2331,0 4.7239,1.3022 5.6681,2.7669 h 0.2574 z m 11.2504,2.482 c 0,-0.773 -0.4295,-1.0984 -1.1163,-1.0984 h -1.5029 c -0.3005,0 -0.3867,-0.0817 -0.3867,-0.326 v -0.8946 c 0,-0.2038 0.0862,-0.2852 0.3008,-0.2852 0.3435,0 2.0182,0.1222 5.0241,0.1222 3.1346,0 5.0238,-0.1222 5.3249,-0.1222 0.2146,0 0.3005,0.0814 0.3005,0.2852 v 0.9354 c 0,0.2035 -0.0859,0.2852 -0.3436,0.2852 h -1.8896 c -0.8589,0 -1.2024,0.4064 -1.2024,1.7084 v 7.8523 c 0,0.5286 0.1717,1.4238 0.5153,1.9933 0.5151,0.8543 1.2884,1.1798 1.8034,1.1798 0.4297,0 0.8589,-0.0811 1.2025,-0.3255 0.3435,-0.163 0.8589,-0.3254 1.4601,-0.3254 1.1163,0 2.3187,1.0576 2.3187,2.1969 0,1.1392 -0.8592,2.0344 -2.2328,2.0344 -1.8896,0 -3.693,-1.3836 -5.1531,-3.6615 h -0.1718 l -0.3861,2.9287 c -0.0431,0.2444 -0.1292,0.4885 -0.3869,0.4885 -0.2574,0 -0.4292,-0.0811 -0.6868,-0.1628 l -5.196,-2.319 c -0.2576,-0.1222 -0.3438,-0.2035 -0.3438,-0.3659 v -0.2441 c 0,-0.163 0.0862,-0.2443 0.3438,-0.3254 l 0.7731,-0.4074 c 1.288,-0.6508 1.6316,-1.3016 1.6316,-3.1731 z m 22.115,14.9715 c -1.7603,0 -3.9937,-0.3255 -6.0976,-1.9526 -2.5767,-1.953 -3.6073,-4.801 -3.6073,-6.7538 0,-2.4817 0.4297,-4.1904 2.3193,-6.3059 1.9321,-2.1969 4.2505,-2.9296 6.9559,-2.9296 2.8775,0 5.4536,1.0581 7.2145,2.9296 1.6316,1.7087 2.6623,3.9055 2.6623,6.1837 0,2.4007 -0.9448,4.5162 -2.9631,6.4285 -1.4601,1.3424 -3.6074,2.4001 -6.484,2.4001 z M 645.215,119.56 c -1.7176,0 -2.6623,0.6508 -3.3923,1.7492 -1.1596,1.7499 -1.3308,3.2956 -1.3308,5.6551 0,2.9702 0.5147,4.6786 1.8462,6.103 0.7302,0.773 1.5888,1.0985 2.7051,1.0985 1.9754,0 4.4662,-2.6039 4.4662,-7.0793 0,-4.1496 -1.4604,-7.5265 -4.2944,-7.5265 z m 14.4711,12.7749 v -11.1478 c 0,-1.1387 -0.6443,-1.4641 -1.0735,-1.4641 h -1.6316 c -0.5153,0 -0.6012,-0.0817 -0.6012,-0.326 v -0.773 c 0,-0.2438 0.0859,-0.4068 0.3435,-0.4068 0.3436,0 2.0608,0.1222 5.3244,0.1222 3.0064,0 4.8957,-0.1222 5.2392,-0.1222 0.1712,0 0.2577,0.163 0.2577,0.4068 v 0.7324 c 0,0.2849 -0.0865,0.3666 -0.5153,0.3666 h -1.6319 c -0.9445,0 -1.0307,0.5692 -1.1166,1.3016 -0.0859,1.2206 -0.0859,5.3705 -0.0859,7.242 v 5.8583 c 0,2.2377 0.0859,10.7 0.1718,12.8968 0,0.5698 -0.1718,0.7322 -0.4295,0.7322 -0.1718,0 -0.4291,-0.0813 -0.9448,-0.2438 -1.3739,-0.8138 -4.723,-1.8717 -6.4411,-2.3598 -0.2571,-0.0814 -0.3436,-0.2441 -0.3436,-0.3254 v -0.4884 c 0,-0.1625 0,-0.2441 0.258,-0.3254 l 0.8589,-0.2441 c 1.3739,-0.4068 2.1041,-1.0576 2.1897,-2.4412 0.0859,-1.0576 0.1718,-4.5564 0.1718,-7.4044 z m 18.6795,3.458 c -1.7603,0 -3.9932,-0.3255 -6.0973,-1.9526 -2.5765,-1.953 -3.6074,-4.801 -3.6074,-6.7538 0,-2.4817 0.4297,-4.1904 2.3193,-6.3059 1.9321,-2.1969 4.2505,-2.9296 6.9559,-2.9296 2.8772,0 5.4536,1.0581 7.2145,2.9296 1.6316,1.7087 2.6623,3.9055 2.6623,6.1837 0,2.4007 -0.9448,4.5162 -2.9634,6.4285 -1.4598,1.3424 -3.6065,2.4001 -6.4839,2.4001 z M 678.2797,119.56 c -1.7172,0 -2.6623,0.6508 -3.3925,1.7492 -1.1594,1.7499 -1.3309,3.2956 -1.3309,5.6551 0,2.9702 0.5154,4.6786 1.8465,6.103 0.7299,0.773 1.5888,1.0985 2.7051,1.0985 1.9755,0 4.4663,-2.6039 4.4663,-7.0793 0,-4.1496 -1.4604,-7.5265 -4.2945,-7.5265 z m -1.3309,18.5519 c 0.0856,-0.0814 0.2574,-0.0814 0.3436,0 l 5.4961,3.5801 c 1.8037,1.1798 0.8589,3.4175 -0.773,3.3361 -0.8586,0.0408 -1.5455,-0.5286 -2.1042,-1.3016 l -3.4781,-4.8822 c -0.0856,-0.0816 -0.0856,-0.244 0,-0.3257 z m 21.5133,-30.8384 c 4.0368,-0.0817 7.0421,1.2206 8.4163,2.2782 1.8896,1.3833 2.6626,2.9293 2.6626,4.7194 0,1.2206 -0.4294,2.7666 -2.1472,3.9869 -1.8896,1.465 -4.0369,1.7087 -7.3001,1.546 -3.7789,-0.1627 -5.4105,-0.1627 -5.4105,1.4647 0,0.9765 1.0735,1.7087 1.8465,2.0341 0.9017,-0.1627 1.5029,-0.1627 2.4477,-0.1627 2.018,0 4.0794,0.4882 5.4536,1.8715 1.2881,1.3087 1.8037,2.9497 1.8037,4.543 0,1.3088 -0.258,2.2105 -0.5156,2.6989 0.3435,0.2441 0.7732,0.2441 1.0303,0.2441 0.3436,0 0.6875,-0.2441 1.0313,-0.4884 0.2568,-0.2441 0.6868,-0.5695 1.3309,-0.5695 0.9445,0 1.7175,0.8138 1.7175,1.6276 0.0861,1.0576 -0.6443,1.9525 -2.2329,1.9525 -1.1165,0 -2.6195,-0.7321 -3.6499,-1.5054 -0.4297,0.407 -2.1472,2.2785 -5.8402,2.2785 -5.5392,0 -7.9444,-3.2548 -7.9444,-5.94 0,-3.4578 2.0617,-5.1668 3.6933,-6.0617 v -0.0813 c -1.2881,-0.5698 -3.6933,-1.9531 -3.6933,-4.1499 0,-1.302 1.031,-2.6039 2.9203,-3.0107 v -0.2441 c -2.0611,-0.8135 -4.466,-2.3595 -4.466,-4.5567 0,-1.3019 0.6012,-2.3595 2.147,-3.2142 1.8895,-1.017 4.638,-1.2608 6.6991,-1.2608 z m 0.5153,17.2905 c -1.2022,0 -1.8468,0.3257 -2.4477,0.8951 -0.7299,0.6101 -1.0735,1.9123 -1.0735,3.214 0,1.5868 0.2574,3.4582 1.2022,4.5975 0.6443,0.7322 1.4167,1.0171 2.319,1.0171 1.0307,0 1.6319,-0.3663 2.018,-0.8136 0.4297,-0.5289 0.9448,-1.5868 0.9448,-3.2142 0,-2.8885 -0.7296,-5.6959 -2.9628,-5.6959 z m 0.9442,-8.4215 c 4.1227,0.1627 5.9261,-1.3022 5.9261,-3.6615 0.0862,-2.4007 -3.6068,-3.621 -5.8396,-3.621 -2.4908,0 -3.6933,0.2441 -5.0241,0.9763 -0.8158,0.4476 -1.5458,1.6679 -1.5458,2.8071 0,1.6277 1.4168,2.9296 2.619,3.2551 z m 14.2994,8.0552 c 0,-1.1386 -0.0425,-2.4409 -0.0856,-3.6615 -0.0425,-0.6508 -0.2577,-0.8132 -0.6868,-0.8132 h -1.8896 c -0.2577,0 -0.4295,-0.0817 -0.4295,-0.326 v -0.773 c 0,-0.3254 0.129,-0.4068 0.3436,-0.4068 0.5151,0 2.1472,0.1222 4.6375,0.1222 2.8774,0 4.8526,-0.1222 5.1962,-0.1222 0.2576,0 0.3432,0.163 0.3432,0.4068 v 0.8138 c 0,0.2035 -0.0856,0.2852 -0.4291,0.2852 h -1.7181 c -0.4292,0 -0.6007,0.3254 -0.6868,1.0576 -0.0856,0.4881 -0.0856,1.9525 -0.0856,3.4988 v 4.3937 c 0,3.3769 0,5.9805 0.0856,6.6313 0.0431,0.3257 -0.0856,0.4885 -0.3436,0.4885 -0.2577,0 -0.6012,-0.0811 -1.0304,-0.2441 -0.7302,-0.2846 -4.9813,-1.7085 -5.5823,-1.9528 -0.2148,-0.0816 -0.3007,-0.1627 -0.3007,-0.3254 v -0.4476 c 0,-0.1627 0.0431,-0.2849 0.4292,-0.3662 1.9754,-0.4885 2.2328,-1.3017 2.2328,-2.5223 z m 4.2514,18.2265 c 0,0.936 -0.8158,2.1158 -2.5333,2.1158 -1.7181,0 -2.8772,-1.0984 -2.8772,-2.2782 0,-1.3833 1.2884,-2.2785 2.6195,-2.2785 1.9324,0 2.791,1.2614 2.791,2.4409 z m 20.6121,-20.3825 c -0.1287,0.1222 -0.3007,0.1222 -0.3866,0.0405 -1.1594,-0.8543 -2.4905,-1.546 -4.6375,-1.546 -1.3742,0 -3.2638,0.4071 -4.4232,2.1969 -1.5885,2.482 -1.675,4.1499 -1.675,6.5911 0,2.8885 2.1473,4.7194 3.8654,4.7194 1.116,0 2.0607,-0.2849 2.662,-1.6679 0.4294,-1.0582 1.1165,-2.0344 2.5767,-2.0344 1.2021,0 1.8895,0.8138 1.8895,1.79 0,1.2206 -1.1168,3.6616 -6.0978,3.6616 -2.405,0 -4.4657,-0.8139 -6.2694,-2.3596 -2.147,-1.8714 -3.1777,-4.7194 -3.1777,-7.2825 0,-2.0341 0.4295,-3.6615 2.0611,-5.6146 1.6319,-1.9525 3.9506,-2.6852 6.8703,-2.6852 3.1782,0 6.1835,1.872 7.2573,3.1328 0.1718,0.2033 0.1287,0.3662 0,0.4884 z m 12.8393,-1.7087 c 0.6012,-1.7493 1.9754,-2.482 3.6071,-2.482 2.4905,0 3.5209,1.6276 3.95,2.3598 0.1721,0.4071 0.0865,0.5698 -0.0856,0.6508 l -0.5147,0.3255 c -0.1721,0.0816 -0.258,0.0816 -0.43,-0.1625 -0.1713,-0.3254 -0.7725,-0.6508 -1.3737,-0.6508 -0.773,0 -1.1166,0.6508 -1.1166,2.8477 v 1.9531 l -0.0862,6.4281 c 0,1.0984 -0.0856,2.2376 -1.0304,3.0509 -0.773,0.6508 -1.5457,1.1393 -3.9503,1.1393 -2.8344,0 -5.1531,-0.9763 -6.9565,-2.2785 -1.2886,-0.8947 -1.9755,-2.1969 -1.9755,-3.3361 0,-0.8946 0.6869,-1.3831 1.4599,-1.3831 1.8036,0 2.5764,0.8952 2.5764,2.3599 0,0.9762 -0.4292,1.5863 0.172,1.9933 0.6869,0.4881 1.7173,0.7322 2.4906,0.7322 0.9447,0 1.7175,-0.1624 2.1469,-0.61 0.5154,-0.4884 0.6012,-1.4647 0.6874,-2.2785 v -2.1155 c -0.9448,-0.6508 -2.5764,-1.302 -5.2393,-2.5223 -3.0914,-1.3019 -3.9506,-3.1328 -3.9506,-5.0043 0,-2.2784 1.3742,-3.499 2.9633,-3.499 0.8586,0 1.7606,0 2.7482,0.2851 1.6744,0.5287 2.791,1.2203 3.7358,2.1969 z m -0.4292,1.7087 c 0,-0.7325 -1.546,-1.8714 -2.7485,-1.9531 -1.0304,0 -1.9751,0.8139 -1.9751,2.482 0,2.9699 2.834,3.6616 4.7236,4.8008 z M 229.0051,235.6033 c 2.0438,-5.9698 8.8557,-26.6227 10.2183,-32.4312 1.0219,-4.3566 -0.341,-5.9701 -5.1092,-5.9701 h -4.4277 c -1.0216,0 -1.3626,-0.3225 -1.3626,-1.2909 v -3.2269 c 0,-0.968 0.341,-1.9361 1.7031,-1.9361 3.7468,0 9.5371,0.4839 23.8422,0.4839 18.7333,0 22.1391,-0.4839 25.2045,-0.4839 1.3626,0 1.7031,0.9681 1.7031,1.9361 v 3.3885 c 0,0.8068 -0.3405,1.1293 -1.3621,1.1293 h -5.4499 c -3.4058,0 -7.8338,1.9361 -10.8992,7.422 -2.3845,4.3566 -13.2837,34.3675 -17.371,46.9531 -3.0654,10.3263 -16.3488,46.4686 -19.4142,56.4723 -0.3407,0.9681 -1.0219,2.9044 -2.0435,2.9044 -0.8515,0 -1.5327,-0.6454 -2.5546,-1.6135 -2.0435,-1.9363 -11.4103,-6.7767 -16.8599,-8.0674 -1.3626,-0.3228 -1.703,-0.9683 -1.703,-1.6137 0,-0.4839 0.5108,-1.4522 1.0216,-1.9361 1.0221,-0.9683 0,-3.8724 -0.3402,-5.4859 -1.7033,-4.1952 -15.4976,-39.0466 -16.6898,-42.2739 -5.1089,-13.5533 -17.3707,-42.5965 -19.0738,-45.5003 -3.0654,-5.002 -6.1305,-7.261 -10.8992,-7.261 h -5.1091 c -0.6809,0 -1.0214,-0.3225 -1.0214,-1.2909 v -3.0653 c 0,-1.1296 0,-2.0977 1.0214,-2.0977 2.3845,0 6.131,0.4839 18.7333,0.4839 11.9208,0 19.0737,-0.4839 21.4582,-0.4839 1.0216,0 1.3621,0.6455 1.3621,1.6132 v 4.0337 c 0,0.4845 -0.3405,0.807 -1.7031,0.807 h -7.1523 c -3.4062,0 -6.1311,1.7751 -6.1311,3.8725 0,0.8064 0,2.0976 0.3407,3.3885 0.8516,4.356 9.1962,27.4294 10.5588,31.1403 z m -37.1257,6.4542 c 1.1923,3.7111 16.5195,43.4029 17.2007,45.5006 0.5108,1.4522 1.1919,2.0976 2.2141,2.0976 0.6809,0 1.0216,-0.9683 1.7025,-2.9044 1.0219,-3.2269 12.6028,-40.015 14.3053,-44.6938 z m 131.1319,0.1613 c 1.8737,0.1615 4.7687,0.3226 5.4499,0.3226 7.1523,0 11.0693,-4.3563 15.3272,-10.0035 2.7246,-3.5498 7.4931,-10.9718 9.1961,-13.8765 1.5327,-2.5812 8.1746,-14.1984 11.2397,-18.7165 2.2138,-3.3883 5.4499,-7.7446 7.4934,-9.1968 3.7465,0.161 10.218,0.4839 14.9865,0.4839 10.8992,0 15.3272,-0.4839 16.6892,-0.4839 1.0219,0 1.3626,0.4839 1.3626,1.6132 v 3.3886 c 0,0.6451 -0.3407,1.1296 -1.3626,1.1296 -4.087,0 -8.8551,0.3225 -12.0912,3.0654 -2.5543,2.2589 -13.4535,16.7805 -14.4754,18.3942 -1.3626,1.9361 -11.9213,17.1032 -13.9648,19.6847 -2.384,2.9044 -5.4496,5.8082 -10.2181,7.4219 v 0.6455 c 18.7333,2.9044 31.6763,11.2946 31.6763,31.6244 0,6.1314 -3.0656,12.9079 -9.1964,18.0715 -6.812,5.8081 -17.3707,10.1647 -30.9952,10.1647 -5.1088,0 -20.7762,-0.4839 -30.3131,-0.4839 -16.6898,0 -22.1397,0.4839 -23.3314,0.4839 -0.8518,0 -1.1923,-0.3229 -1.1923,-1.1293 v -4.3566 c 0,-0.6451 0.3405,-0.968 1.1923,-0.968 h 6.6416 c 3.0654,0 5.4496,-2.5815 5.4496,-8.0674 v -42.4349 c 0,-15.1671 0,-30.3342 -0.3407,-46.469 0,-4.3565 -2.7244,-5.3246 -6.4713,-5.3246 h -5.79 c -0.6815,0 -1.0219,-0.4841 -1.0219,-1.2909 v -3.7108 c 0,-0.9683 0.3404,-1.4522 1.3621,-1.4522 1.7033,0 5.7903,0.4839 22.4801,0.4839 17.7112,0 21.1173,-0.4839 23.3308,-0.4839 1.3627,0 1.8737,0.3226 1.8737,1.4522 v 3.8724 c 0,0.6452 -0.341,1.1293 -1.3629,1.1293 h -8.5149 c -2.7244,0 -3.9167,2.9044 -4.4278,6.1311 -0.3401,2.4205 -0.6811,20.4919 -0.6811,30.1725 z m 0.6811,52.2774 c 0,1.936 0.6815,3.8724 2.0435,4.6791 1.3629,0.8067 3.4064,0.9678 6.1314,0.9678 8.5147,0 16.3488,-1.7745 22.4796,-6.9381 4.2573,-3.7109 7.4934,-10.6489 7.4934,-18.0709 0,-7.4219 -5.4499,-27.7523 -32.0165,-27.7523 -2.0438,0 -4.0879,0.3229 -6.4715,0.6454 z m 101.67,-62.4425 h 41.2129 c 3.0654,0 4.7687,0.1613 4.7687,2.5815 0,6.6153 -6.3014,25.816 -25.7159,25.816 -14.8158,0 -22.4796,-3.2269 -29.6319,-11.9398 -7.3233,-9.0354 -8.3452,-15.0058 -8.3452,-23.8799 0,-10.0038 1.703,-18.0712 9.5368,-26.6227 5.9607,-6.4539 13.6245,-8.7129 24.5234,-8.7129 18.7336,0 27.4187,10.9718 30.9949,17.1032 1.1922,2.0976 0.8518,2.7428 0,3.2269 l -2.5546,1.4522 c -0.6812,0.3229 -1.3621,0.3229 -2.0435,-0.807 -3.5762,-5.163 -10.0477,-9.358 -20.6065,-9.358 -9.7072,0 -22.1391,9.6808 -22.1391,26.1388 z m 0.5108,5.8085 c 2.2141,10.8105 7.323,16.6192 15.6679,16.6192 8.8555,0 10.5585,-9.5195 10.5585,-14.3603 0,-1.2906 -2.0435,-2.2589 -5.6197,-2.2589 z m 79.1901,45.9848 h 1.0219 c 2.044,-2.259 29.2918,-34.5291 31.676,-36.7878 2.0435,-2.5818 15.3275,-17.7483 27.2483,-31.6244 10.5588,-11.9401 19.7547,-21.9436 21.1173,-23.5574 1.3623,-1.2906 3.4058,-2.5815 5.7903,-2.5815 2.0435,0 2.0435,2.259 2.0435,4.5176 V 236.41 c 0,16.4577 1.7031,43.5646 2.5546,54.5363 0.5108,5.9701 2.2138,8.5516 5.6199,8.5516 h 4.7688 c 0.6811,0 1.0216,0.6452 1.0216,1.6135 v 3.7111 c 0,0.4841 -0.3405,1.1293 -1.7034,1.1293 -2.0435,0 -6.1304,-0.4839 -16.3485,-0.4839 -11.5807,0 -17.0303,0.4839 -19.074,0.4839 -1.3621,0 -1.3621,-0.3229 -1.3621,-1.2906 v -3.7111 c 0,-0.807 0,-1.4522 1.0219,-1.4522 h 5.4493 c 4.0876,0 7.8336,-2.2587 9.0261,-6.1313 0.8515,-2.7431 1.533,-18.5554 1.8731,-24.6867 0.3408,-8.0674 0.3408,-16.1348 0.3408,-30.3338 v -16.78 h -0.6809 c -2.7255,3.2267 -29.2921,34.5288 -31.6766,37.1103 -3.4058,4.5176 -36.7849,44.2097 -38.4877,45.8232 -1.0219,0.9683 -2.0438,1.4522 -4.0873,1.4522 -1.0216,0 -2.5543,-0.1613 -4.7684,-0.1613 -2.0435,-0.1616 -4.5984,-0.3226 -7.4934,-0.3226 -7.4934,0 -12.0912,0 -15.1566,0.161 -3.0656,0.1616 -4.428,0.3229 -5.2798,0.3229 -0.6809,0 -1.0216,-0.3229 -1.0216,-0.968 v -4.3563 c 0,-0.6455 0.3407,-0.9683 1.0216,-1.1296 h 5.4499 c 7.4931,0 13.2834,-7.4222 13.2834,-17.1031 v -20.4914 c 0,-25.816 -1.0216,-48.4047 -1.1922,-51.3094 -0.8513,-9.8424 -3.2352,-13.392 -7.6632,-13.392 h -5.7903 c -0.6812,0 -1.0219,-0.6454 -1.0219,-0.968 v -4.0337 c 0,-1.1296 0.3407,-1.4522 1.0219,-1.4522 1.703,0 13.2834,0.4839 17.7111,0.4839 6.4715,0 16.6896,-0.4839 18.3929,-0.4839 1.3623,0 1.3623,0.3226 1.3623,1.2909 v 3.7109 c 0,0.8067 0,1.4521 -1.3623,1.4521 h -4.428 c -6.131,0 -8.1748,3.8725 -8.515,11.9399 -0.3407,5.002 -1.7033,27.591 -1.7033,55.0204 z m 130.1099,-51.7933 h 41.2129 c 3.0654,0 4.7688,0.1613 4.7688,2.5815 0,6.6153 -6.3015,25.816 -25.7157,25.816 -14.8161,0 -22.4798,-3.2269 -29.6322,-11.9398 -7.323,-9.0354 -8.3449,-15.0058 -8.3449,-23.8799 0,-10.0038 1.7028,-18.0712 9.5366,-26.6227 5.9607,-6.4539 13.6244,-8.7129 24.5233,-8.7129 18.7337,0 27.4187,10.9718 30.9952,17.1032 1.192,2.0976 0.8515,2.7428 0,3.2269 l -2.5549,1.4522 c -0.6809,0.3229 -1.362,0.3229 -2.0435,-0.807 -3.5762,-5.163 -10.0477,-9.358 -20.6064,-9.358 -9.707,0 -22.1392,9.6808 -22.1392,26.1388 z m 0.5108,5.8085 c 2.2142,10.8105 7.3231,16.6192 15.6683,16.6192 8.8554,0 10.5584,-9.5195 10.5584,-14.3603 0,-1.2906 -2.0437,-2.2589 -5.6199,-2.2589 z M 396.0473,483.982 c 14.4238,-27.2511 27.8856,-30.5833 48.8866,-9.3719 -19.4675,-23.9119 -11.8803,-45.2908 24.5591,-48.1374 -41.0366,0.4201 -49.1386,-10.559 -35.7386,-45.8217 -20.8284,37.0961 -21.7321,41.2846 -55.0395,13.4878 26.8631,24.785 11.2606,42.1259 -18.8291,48.8636 29.9194,0.5967 42.5009,11.7445 36.1615,40.9796 z m 109.9438,-59.7951 c -0.9151,-36.1506 -23.4712,-66.9178 -55.1951,-79.8466 -26.8878,59.72 -15.4732,80.5634 55.1951,79.8466 z m -55.3023,-79.8908 c -10.2906,-4.1777 -21.5407,-6.4849 -33.3306,-6.4849 -25.6887,0 -48.8208,10.929 -65.0132,28.3862 56.8789,47.4006 61.1947,40.2766 98.3438,-21.9013 z m -98.3727,21.9322 c -14.6557,15.8156 -23.6197,36.9819 -23.6197,60.2444 0,6.939 0.7991,13.6908 2.3066,20.1708 51.8442,-11.6289 67.1596,-37.8094 21.3131,-80.4152"/></g></svg>