<svg width="23" height="20" viewBox="0 0 23 20" fill="red" xmlns="http://www.w3.org/2000/svg">
<path d="M12.912 5.4053C15.6273 5.4053 16.7855 6.41234 16.7855 8.77331H19.3678C19.3678 5.1527 17.076 3.15997 12.912 3.15997V5.4053ZM17.3303 11.516C17.0822 11.3199 16.7562 11.2153 16.4211 11.2244C16.086 11.2334 15.768 11.3552 15.5343 11.5643L12.4446 14.3272C11.7009 14.2037 10.2057 13.7984 8.66664 12.4635C7.12758 11.1242 6.66147 9.82076 6.52332 9.1786L9.69828 6.49093C9.93897 6.28787 10.0794 6.01135 10.0897 5.71988C10.1001 5.42842 9.97961 5.14489 9.7538 4.92929L4.98296 0.36789C4.75706 0.151615 4.4431 0.0204285 4.10775 0.00219121C3.7724 -0.016046 3.44208 0.0801029 3.18695 0.270218L0.385131 2.3595C0.161903 2.5543 0.0286658 2.81357 0.0106934 3.08812C-0.00867408 3.36878 -0.377946 10.0172 5.55107 15.1748C10.7235 19.6711 17.2025 20 18.9869 20C19.2477 20 19.4078 19.9933 19.4504 19.991C19.7661 19.9757 20.0642 19.8593 20.2871 19.6643L22.6887 17.227C22.9075 17.0053 23.0183 16.7182 22.9975 16.4266C22.9768 16.135 22.8262 15.8619 22.5776 15.6654L17.3303 11.516V11.516Z" fill="white"/>
</svg>
